<svg width="194" height="177" viewBox="0 0 194 177" fill="none" xmlns="http://www.w3.org/2000/svg">
<path d="M75.4045 6.72802C76.0749 6.22178 76.7886 5.75189 77.5399 5.32609C83.546 1.91939 90.6652 2.03843 96.963 4.57789C103.261 7.11734 108.971 12.0394 112.92 18.7467C116.868 25.4557 118.361 32.7674 117.456 39.3916C116.553 46.017 113.103 52.1342 107.097 55.5409C101.091 58.9476 93.9718 58.8285 87.674 56.2891C81.3762 53.7496 75.6657 48.8275 71.7169 42.1202C67.7685 35.4112 66.2742 28.0973 67.178 21.4719C67.9694 15.6753 70.7076 10.2711 75.4046 6.72779L75.4045 6.72802ZM27.1408 42.4176C31.9087 38.9621 38.0679 37.7918 44.1311 38.52C51.0609 39.3527 58.0822 42.5759 63.8719 47.9216C69.6636 53.2675 73.2027 59.7934 74.1837 66.2649C75.1658 72.7352 73.4934 79.3571 68.5327 84.0583C63.5732 88.7603 56.5187 90.4154 49.5892 89.5829C42.6595 88.7502 35.6356 85.5239 29.8457 80.178C24.054 74.8321 20.5149 68.3061 19.5339 61.8346C18.5518 55.3644 20.2242 48.7425 25.1849 44.0413C25.8049 43.453 26.4601 42.9107 27.1411 42.4176L27.1408 42.4176ZM144.449 4.5269C147.229 2.6146 150.375 1.33515 153.766 0.951287C160.546 0.184484 166.666 3.1751 170.958 8.1044C175.249 13.0327 177.933 19.9616 178.265 27.8504C178.597 35.7402 176.52 43.2028 172.681 49.0525C168.842 54.9023 163.029 59.2426 156.25 60.0105C149.469 60.7773 143.35 57.7867 139.057 52.8574C134.766 47.9291 132.085 41.0033 131.753 33.1145C131.422 25.2247 133.502 17.7592 137.341 11.9097C139.26 8.98592 141.669 6.44038 144.449 4.52803L144.449 4.5269ZM7.51354 105.786C10.1477 103.693 13.3303 102.101 16.7735 101.061C23.6582 98.9806 31.7332 98.9418 39.6298 101.235C47.5273 103.53 53.8554 107.757 57.7605 112.973C61.6645 118.187 63.1487 124.607 60.6644 130.692C58.1802 136.776 52.3204 141.065 45.4356 143.145C38.5508 145.225 30.4824 145.265 22.5849 142.97C14.6874 140.675 8.35543 136.451 4.45067 131.235C0.546655 126.021 -0.933742 119.598 1.55035 113.514C2.79309 110.471 4.8785 107.879 7.51239 105.786L7.51354 105.786ZM88.4876 70.6355C118.268 48.6139 162.08 55.9329 186.46 86.1072C192.555 93.6508 195.047 99.3429 193.405 104.632C192.585 107.277 190.672 109.44 188.396 111.066C186.121 112.693 183.445 113.912 180.474 115.035C168.591 119.525 151.517 122.674 138.379 132.39C125.242 142.104 117.748 157.122 110.212 166.991C108.329 169.458 106.42 171.629 104.202 173.326C101.983 175.022 99.3142 176.247 96.4314 176.341C90.667 176.529 85.5371 172.787 79.4421 165.244C55.0612 135.069 58.7016 92.6613 88.4844 70.6378L88.4876 70.6355Z" fill="#3E9FD0"/>
</svg>
