<svg width="636" height="661" viewBox="0 0 636 661" fill="none" xmlns="http://www.w3.org/2000/svg">
<path d="M107.405 43.728C108.075 43.2218 108.789 42.7519 109.54 42.3261C115.546 38.9194 122.665 39.0384 128.963 41.5779C135.261 44.1173 140.971 49.0394 144.92 55.7467C148.868 62.4557 150.361 69.7674 149.456 76.3916C148.553 83.017 145.103 89.1342 139.097 92.5409C133.091 95.9476 125.972 95.8285 119.674 93.2891C113.376 90.7496 107.666 85.8275 103.717 79.1202C99.7685 72.4112 98.2742 65.0973 99.178 58.4719C99.9694 52.6753 102.708 47.2711 107.405 43.7278L107.405 43.728ZM59.1408 79.4176C63.9087 75.9621 70.0679 74.7918 76.1311 75.52C83.0609 76.3527 90.0822 79.5759 95.8719 84.9216C101.664 90.2675 105.203 96.7934 106.184 103.265C107.166 109.735 105.493 116.357 100.533 121.058C95.5732 125.76 88.5187 127.415 81.5892 126.583C74.6595 125.75 67.6356 122.524 61.8457 117.178C56.054 111.832 52.5149 105.306 51.5339 98.8346C50.5518 92.3644 52.2242 85.7425 57.1849 81.0413C57.8049 80.453 58.4601 79.9107 59.1411 79.4176L59.1408 79.4176ZM176.449 41.5269C179.229 39.6146 182.375 38.3351 185.766 37.9513C192.546 37.1845 198.666 40.1751 202.958 45.1044C207.249 50.0327 209.933 56.9616 210.265 64.8504C210.597 72.7402 208.52 80.2028 204.681 86.0525C200.842 91.9023 195.029 96.2426 188.25 97.0105C181.469 97.7773 175.35 94.7867 171.057 89.8574C166.766 84.9291 164.085 78.0033 163.753 70.1145C163.422 62.2247 165.502 54.7592 169.341 48.9097C171.26 45.9859 173.669 43.4404 176.449 41.528L176.449 41.5269ZM39.5135 142.786C42.1477 140.693 45.3303 139.101 48.7735 138.061C55.6582 135.981 63.7332 135.942 71.6298 138.235C79.5273 140.53 85.8554 144.757 89.7605 149.973C93.6645 155.187 95.1487 161.607 92.6644 167.692C90.1802 173.776 84.3204 178.065 77.4356 180.145C70.5508 182.225 62.4824 182.265 54.5849 179.97C46.6874 177.675 40.3554 173.451 36.4507 168.235C32.5467 163.021 31.0663 156.598 33.5503 150.514C34.7931 147.471 36.8785 144.879 39.5124 142.786L39.5135 142.786ZM120.488 107.635C150.268 85.6139 194.08 92.9329 218.46 123.107C224.555 130.651 227.047 136.343 225.405 141.632C224.585 144.277 222.672 146.44 220.396 148.066C218.121 149.693 215.445 150.912 212.474 152.035C200.591 156.525 183.517 159.674 170.379 169.39C157.242 179.104 149.748 194.122 142.212 203.991C140.329 206.458 138.42 208.629 136.202 210.326C133.983 212.022 131.314 213.247 128.431 213.341C122.667 213.529 117.537 209.787 111.442 202.244C87.0612 172.069 90.7016 129.661 120.484 107.638L120.488 107.635Z" fill="#3E9FD0"/>
<path d="M481.405 463.728C482.075 463.222 482.789 462.752 483.54 462.326C489.546 458.919 496.665 459.038 502.963 461.578C509.261 464.117 514.971 469.039 518.92 475.747C522.868 482.456 524.361 489.767 523.456 496.392C522.553 503.017 519.103 509.134 513.097 512.541C507.091 515.948 499.972 515.829 493.674 513.289C487.376 510.75 481.666 505.828 477.717 499.12C473.769 492.411 472.274 485.097 473.178 478.472C473.969 472.675 476.708 467.271 481.405 463.728ZM433.141 499.418C437.909 495.962 444.068 494.792 450.131 495.52C457.061 496.353 464.082 499.576 469.872 504.922C475.664 510.267 479.203 516.793 480.184 523.265C481.166 529.735 479.493 536.357 474.533 541.058C469.573 545.76 462.519 547.415 455.589 546.583C448.659 545.75 441.636 542.524 435.846 537.178C430.054 531.832 426.515 525.306 425.534 518.835C424.552 512.364 426.224 505.742 431.185 501.041C431.805 500.453 432.46 499.911 433.141 499.418ZM550.449 461.527C553.229 459.615 556.375 458.335 559.766 457.951C566.546 457.184 572.666 460.175 576.958 465.104C581.249 470.033 583.933 476.962 584.265 484.85C584.597 492.74 582.52 500.203 578.681 506.053C574.842 511.902 569.029 516.243 562.25 517.01C555.469 517.777 549.35 514.787 545.057 509.857C540.766 504.929 538.085 498.003 537.753 490.114C537.422 482.225 539.502 474.759 543.341 468.91C545.26 465.986 547.669 463.44 550.449 461.528L550.449 461.527ZM413.514 562.786C416.148 560.693 419.33 559.101 422.773 558.061C429.658 555.981 437.733 555.942 445.63 558.235C453.527 560.53 459.855 564.757 463.761 569.973C467.665 575.187 469.149 581.607 466.664 587.692C464.18 593.776 458.32 598.065 451.436 600.145C444.551 602.225 436.482 602.265 428.585 599.97C420.687 597.675 414.355 593.451 410.451 588.235C406.547 583.021 405.066 576.598 407.55 570.514C408.793 567.471 410.879 564.879 413.512 562.786L413.514 562.786ZM494.488 527.635C524.268 505.614 568.08 512.933 592.46 543.107C598.555 550.651 601.047 556.343 599.405 561.632C598.585 564.277 596.672 566.44 594.396 568.066C592.121 569.693 589.445 570.912 586.474 572.035C574.591 576.525 557.517 579.674 544.379 589.39C531.242 599.104 523.748 614.122 516.212 623.991C514.329 626.458 512.42 628.629 510.202 630.326C507.983 632.022 505.314 633.247 502.431 633.341C496.667 633.529 491.537 629.787 485.442 622.244C461.061 592.069 464.702 549.661 494.484 527.638L494.488 527.635Z" fill="#3E9FD0"/>
</svg>
