<svg width="155" height="140" viewBox="0 0 155 140" fill="none" xmlns="http://www.w3.org/2000/svg">
<path d="M150.414 0.32711L151.467 24.1714C139.009 26.8171 130.419 31.5973 125.694 38.5121C120.97 45.4269 118.986 57.4598 119.744 74.611L151.745 73.1982L154.377 132.809L92.8836 135.524L90.6674 85.3253C89.5223 59.3893 93.4466 39.0975 102.44 24.4498C111.415 9.38376 127.406 1.34287 150.414 0.32711ZM60.0566 4.31629L61.1093 28.1606C48.652 30.8063 40.0611 35.5865 35.3368 42.5013C30.6124 49.416 28.6288 61.449 29.386 78.6002L61.3876 77.1874L64.0194 136.798L2.52611 139.513L0.309894 89.3145C-0.835149 63.3785 3.08906 43.0867 12.0825 28.439C21.0575 13.3729 37.0489 5.33205 60.0566 4.31629Z" fill="#D0D7D9"/>
</svg>
