<svg width="50" height="50" viewBox="0 0 50 50" fill="none" xmlns="http://www.w3.org/2000/svg">
<path d="M6.625 49.9999C5.83333 49.9999 5.15625 49.7916 4.59375 49.3749C4.03125 48.9583 3.75 48.3333 3.75 47.4999C2.75 47.4999 1.875 47.1249 1.125 46.3749C0.375 45.6249 0 44.7499 0 43.7499V27.4999H7.5H8.75H11.25H13.75H16.25H18.75H20H21.25H22.0625H40V6.62494C40 5.83327 39.7396 5.15619 39.2188 4.59369C38.6979 4.03119 38.0417 3.74994 37.25 3.74994C36.8333 3.74994 36.4375 3.79161 36.0625 3.87494C35.6875 3.95827 35.3542 4.14577 35.0625 4.43744L31.8125 7.68744C32.0208 8.39577 32.0521 9.11452 31.9062 9.84369C31.7604 10.5729 31.5 11.2708 31.125 11.9374L24.75 5.87494C25.4167 5.41661 26.1458 5.12494 26.9375 4.99994C27.7292 4.87494 28.5 4.95827 29.25 5.24994L32.5 2.06244C33.125 1.43744 33.8438 0.937439 34.6563 0.562439C35.4688 0.187439 36.3333 -6.10352e-05 37.25 -6.10352e-05C39.0833 -6.10352e-05 40.625 0.645773 41.875 1.93744C43.125 3.22911 43.75 4.79161 43.75 6.62494V27.4999H50V43.7499C50 44.7499 49.6146 45.6249 48.8438 46.3749C48.0729 47.1249 47.2083 47.4999 46.25 47.4999C46.25 48.3333 45.9688 48.9583 45.4063 49.3749C44.8438 49.7916 44.1458 49.9999 43.3125 49.9999H6.625ZM3.75 43.7499H46.25V31.2499H3.75V43.7499Z" fill="#40111F"/>
<path d="M25.5437 25.1185C25.9046 25.4793 26.3383 25.6598 26.8451 25.6598C27.3518 25.6598 27.7856 25.4793 28.1464 25.1185C28.5073 24.7576 28.6877 24.3239 28.6877 23.8171C28.6877 23.3104 28.5073 22.8766 28.1464 22.5158C27.7856 22.1549 27.3518 21.9745 26.8451 21.9745C26.3383 21.9745 25.9046 22.1549 25.5437 22.5158C25.1829 22.8766 25.0024 23.3104 25.0024 23.8171C25.0024 24.3239 25.1829 24.7576 25.5437 25.1185Z" fill="#40111F"/>
<path d="M31.0025 24.2663C31.3173 24.5811 31.6973 24.7385 32.1426 24.7385C32.5879 24.7385 32.9679 24.5811 33.2827 24.2663C33.5975 23.9515 33.7549 23.5715 33.7549 23.1262C33.7549 22.6809 33.5975 22.3008 33.2827 21.986C32.9679 21.6713 32.5879 21.5139 32.1426 21.5139C31.6973 21.5139 31.3173 21.6713 31.0025 21.986C30.6877 22.3008 30.5303 22.6809 30.5303 23.1262C30.5303 23.5715 30.6877 23.9515 31.0025 24.2663Z" fill="#40111F"/>
<path d="M28.1003 20.7192C28.323 20.9419 28.5955 21.0532 28.918 21.0532C29.2405 21.0532 29.513 20.9419 29.7357 20.7192C29.9583 20.4966 30.0696 20.224 30.0696 19.9016C30.0696 19.5791 29.9583 19.3066 29.7357 19.0839C29.513 18.8613 29.2405 18.7499 28.918 18.7499C28.5955 18.7499 28.323 18.8613 28.1003 19.0839C27.8777 19.3066 27.7664 19.5791 27.7664 19.9016C27.7664 20.224 27.8777 20.4966 28.1003 20.7192Z" fill="#40111F"/>
<path d="M19.7963 28.7499V18.0718L20.1682 17.6999C20.363 17.5051 20.5002 17.3015 20.5799 17.089C20.6596 16.8765 20.6995 16.6463 20.6995 16.3984C20.6995 16.1505 20.6596 15.9158 20.5799 15.6945C20.5002 15.4731 20.363 15.265 20.1682 15.0703L16.7682 11.6437H11.987L7.84321 7.49994L5.85102 9.49213C5.1604 10.1828 4.64243 10.9752 4.29712 11.8695C3.95181 12.7637 3.7703 13.6624 3.75259 14.5656C3.7703 15.4687 3.95181 16.3674 4.29712 17.2617C4.64243 18.1559 5.1604 18.9484 5.85102 19.639L8.10884 21.8968V28.7499H19.7963ZM18.2026 27.1562H9.70259V21.2328L6.99321 18.5234C6.44425 17.9744 6.03254 17.3591 5.75806 16.6773C5.48358 15.9955 5.34634 15.2916 5.34634 14.5656C5.34634 13.8395 5.48358 13.14 5.75806 12.4671C6.03254 11.7942 6.44425 11.1833 6.99321 10.6343L7.84321 9.75775L11.3229 13.2374H16.1042L16.9807 14.114L15.0151 16.0796C14.5193 16.5755 14.1474 17.1288 13.8995 17.7398C13.6515 18.3507 13.5276 18.9838 13.5276 19.639C13.5276 20.2588 13.6338 20.8609 13.8463 21.4453C14.0588 22.0296 14.3864 22.5609 14.8292 23.039L18.2026 19.6656V27.1562Z" fill="#40111F"/>
</svg>
