<svg id="visual" viewBox="0 0 1920 1080" width="1920" height="1080" xmlns="http://www.w3.org/2000/svg" xmlns:xlink="http://www.w3.org/1999/xlink" version="1.1"><rect x="0" y="0" width="1920" height="1080" fill="#E3A2A4"></rect><defs><linearGradient id="grad1_0" x1="43.8%" y1="100%" x2="100%" y2="0%"><stop offset="14.444444444444446%" stop-color="#f7d2de" stop-opacity="1"></stop><stop offset="85.55555555555554%" stop-color="#f7d2de" stop-opacity="1"></stop></linearGradient></defs><defs><linearGradient id="grad1_1" x1="43.8%" y1="100%" x2="100%" y2="0%"><stop offset="14.444444444444446%" stop-color="#f7d2de" stop-opacity="1"></stop><stop offset="85.55555555555554%" stop-color="#f8cbda" stop-opacity="1"></stop></linearGradient></defs><defs><linearGradient id="grad1_2" x1="43.8%" y1="100%" x2="100%" y2="0%"><stop offset="14.444444444444446%" stop-color="#fac4d6" stop-opacity="1"></stop><stop offset="85.55555555555554%" stop-color="#f8cbda" stop-opacity="1"></stop></linearGradient></defs><defs><linearGradient id="grad1_3" x1="43.8%" y1="100%" x2="100%" y2="0%"><stop offset="14.444444444444446%" stop-color="#fac4d6" stop-opacity="1"></stop><stop offset="85.55555555555554%" stop-color="#fbbdd1" stop-opacity="1"></stop></linearGradient></defs><defs><linearGradient id="grad1_4" x1="43.8%" y1="100%" x2="100%" y2="0%"><stop offset="14.444444444444446%" stop-color="#fcb6cd" stop-opacity="1"></stop><stop offset="85.55555555555554%" stop-color="#fbbdd1" stop-opacity="1"></stop></linearGradient></defs><defs><linearGradient id="grad1_5" x1="43.8%" y1="100%" x2="100%" y2="0%"><stop offset="14.444444444444446%" stop-color="#fcb6cd" stop-opacity="1"></stop><stop offset="85.55555555555554%" stop-color="#fdafc8" stop-opacity="1"></stop></linearGradient></defs><defs><linearGradient id="grad1_6" x1="43.8%" y1="100%" x2="100%" y2="0%"><stop offset="14.444444444444446%" stop-color="#fea8c4" stop-opacity="1"></stop><stop offset="85.55555555555554%" stop-color="#fdafc8" stop-opacity="1"></stop></linearGradient></defs><defs><linearGradient id="grad1_7" x1="43.8%" y1="100%" x2="100%" y2="0%"><stop offset="14.444444444444446%" stop-color="#fea8c4" stop-opacity="1"></stop><stop offset="85.55555555555554%" stop-color="#E3A2A4" stop-opacity="1"></stop></linearGradient></defs><defs><linearGradient id="grad2_0" x1="0%" y1="100%" x2="56.3%" y2="0%"><stop offset="14.444444444444446%" stop-color="#f7d2de" stop-opacity="1"></stop><stop offset="85.55555555555554%" stop-color="#f7d2de" stop-opacity="1"></stop></linearGradient></defs><defs><linearGradient id="grad2_1" x1="0%" y1="100%" x2="56.3%" y2="0%"><stop offset="14.444444444444446%" stop-color="#f8cbda" stop-opacity="1"></stop><stop offset="85.55555555555554%" stop-color="#f7d2de" stop-opacity="1"></stop></linearGradient></defs><defs><linearGradient id="grad2_2" x1="0%" y1="100%" x2="56.3%" y2="0%"><stop offset="14.444444444444446%" stop-color="#f8cbda" stop-opacity="1"></stop><stop offset="85.55555555555554%" stop-color="#fac4d6" stop-opacity="1"></stop></linearGradient></defs><defs><linearGradient id="grad2_3" x1="0%" y1="100%" x2="56.3%" y2="0%"><stop offset="14.444444444444446%" stop-color="#fbbdd1" stop-opacity="1"></stop><stop offset="85.55555555555554%" stop-color="#fac4d6" stop-opacity="1"></stop></linearGradient></defs><defs><linearGradient id="grad2_4" x1="0%" y1="100%" x2="56.3%" y2="0%"><stop offset="14.444444444444446%" stop-color="#fbbdd1" stop-opacity="1"></stop><stop offset="85.55555555555554%" stop-color="#fcb6cd" stop-opacity="1"></stop></linearGradient></defs><defs><linearGradient id="grad2_5" x1="0%" y1="100%" x2="56.3%" y2="0%"><stop offset="14.444444444444446%" stop-color="#fdafc8" stop-opacity="1"></stop><stop offset="85.55555555555554%" stop-color="#fcb6cd" stop-opacity="1"></stop></linearGradient></defs><defs><linearGradient id="grad2_6" x1="0%" y1="100%" x2="56.3%" y2="0%"><stop offset="14.444444444444446%" stop-color="#fdafc8" stop-opacity="1"></stop><stop offset="85.55555555555554%" stop-color="#fea8c4" stop-opacity="1"></stop></linearGradient></defs><defs><linearGradient id="grad2_7" x1="0%" y1="100%" x2="56.3%" y2="0%"><stop offset="14.444444444444446%" stop-color="#E3A2A4" stop-opacity="1"></stop><stop offset="85.55555555555554%" stop-color="#fea8c4" stop-opacity="1"></stop></linearGradient></defs><g transform="translate(1920, 1080)"><path d="M-1026 0C-998.8 -178.7 -971.5 -357.5 -888.5 -513C-805.6 -668.5 -666.9 -800.8 -509.5 -882.5C-352.1 -964.1 -176.1 -995.1 0 -1026L0 0Z" fill="#EDABAD"></path><path d="M-897.7 0C-873.9 -156.4 -850.1 -312.8 -777.5 -448.9C-704.9 -585 -583.5 -700.7 -445.8 -772.2C-308.1 -843.6 -154.1 -870.7 0 -897.7L0 0Z" fill="#F6B4B6"></path><path d="M-769.5 0C-749.1 -134.1 -728.6 -268.1 -666.4 -384.8C-604.2 -501.4 -500.2 -600.6 -382.1 -661.9C-264.1 -723.1 -132 -746.3 0 -769.5L0 0Z" fill="#F9B9BA"></path><path d="M-641.2 0C-624.2 -111.7 -607.2 -223.4 -555.3 -320.6C-503.5 -417.8 -416.8 -500.5 -318.4 -551.5C-220.1 -602.6 -110 -621.9 0 -641.2L0 0Z" fill="#F8C0BF"></path><path d="M-513 0C-499.4 -89.4 -485.8 -178.7 -444.3 -256.5C-402.8 -334.3 -333.4 -400.4 -254.8 -441.2C-176.1 -482.1 -88 -497.5 0 -513L0 0Z" fill="#F4C2C1"></path><path d="M-384.7 0C-374.5 -67 -364.3 -134.1 -333.2 -192.4C-302.1 -250.7 -250.1 -300.3 -191.1 -330.9C-132 -361.5 -66 -373.1 0 -384.7L0 0Z" fill="#F8CCCB"></path><path d="M-256.5 0C-249.7 -44.7 -242.9 -89.4 -222.1 -128.3C-201.4 -167.1 -166.7 -200.2 -127.4 -220.6C-88 -241 -44 -248.8 0 -256.5L0 0Z" fill="#FBCFCE"></path><path d="M-128.2 0C-124.8 -22.3 -121.4 -44.7 -111.1 -64.1C-100.7 -83.6 -83.4 -100.1 -63.7 -110.3C-44 -120.5 -22 -124.4 0 -128.2L0 0Z" fill="#FBD7D7"></path></g><g transform="translate(0, 0)"><path d="M1026 0C987.2 171.5 948.4 343.1 867.8 501C787.1 658.9 664.6 803.3 513 888.5C361.4 973.8 180.7 999.9 0 1026L0 0Z" fill="#EDABAD"></path><path d="M897.8 0C863.8 150.1 829.9 300.2 759.3 438.4C688.7 576.6 581.5 702.9 448.9 777.5C316.2 852.1 158.1 874.9 0 897.8L0 0Z" fill="#F6B4B6"></path><path d="M769.5 0C740.4 128.6 711.3 257.3 650.8 375.7C590.3 494.2 498.5 602.5 384.8 666.4C271 730.3 135.5 749.9 0 769.5L0 0Z" fill="#F9B9BA"></path><path d="M641.3 0C617 107.2 592.8 214.4 542.3 313.1C491.9 411.8 415.4 502.1 320.6 555.3C225.9 608.6 112.9 624.9 0 641.3L0 0Z" fill="#F8C0BF"></path><path d="M513 0C493.6 85.8 474.2 171.5 433.9 250.5C393.6 329.5 332.3 401.7 256.5 444.3C180.7 486.9 90.3 499.9 0 513L0 0Z" fill="#F4C2C1"></path><path d="M384.8 0C370.2 64.3 355.7 128.6 325.4 187.9C295.2 247.1 249.2 301.2 192.4 333.2C135.5 365.2 67.8 375 0 384.8L0 0Z" fill="#F8CCCB"></path><path d="M256.5 0C246.8 42.9 237.1 85.8 216.9 125.2C196.8 164.7 166.2 200.8 128.3 222.1C90.3 243.4 45.2 250 0 256.5L0 0Z" fill="#FBCFCE"></path><path d="M128.3 0C123.4 21.4 118.6 42.9 108.5 62.6C98.4 82.4 83.1 100.4 64.1 111.1C45.2 121.7 22.6 125 0 128.3L0 0Z" fill="#FBD7D7"></path></g></svg>