<svg width="42" height="52" viewBox="0 0 42 52" fill="none" xmlns="http://www.w3.org/2000/svg">
<path d="M40.8675 7.96402C40.5401 7.1392 39.9109 6.49266 39.0964 6.14391L26.0746 0.549829C24.581 -0.0926555 22.9046 -0.175069 21.3546 0.318024L17.0422 1.68857C16.6006 1.82886 16.3566 2.30058 16.4968 2.74193C16.6371 3.18348 17.109 3.42775 17.5502 3.28726L21.8628 1.91672C23.0284 1.54591 24.2888 1.60784 25.412 2.09104L38.4351 7.68562C38.837 7.85777 39.1469 8.17634 39.3084 8.58286C39.4699 8.98998 39.4626 9.43519 39.2888 9.83429L40.0555 10.1745L39.2822 9.84883C38.9364 10.6283 38.037 11.0114 37.234 10.7204L27.2729 7.11635C26.327 6.77294 25.2797 6.76196 24.3236 7.08479L15.5693 10.0406C14.2128 10.4997 13.4255 11.9459 13.7771 13.3337C13.9878 14.1595 14.5549 14.8312 15.3334 15.1767C15.9613 15.4553 16.666 15.4903 17.3176 15.2747L24.9556 12.7514C25.5605 12.5522 26.2291 12.8551 26.4779 13.4428C26.6123 13.7586 26.6089 14.1066 26.4685 14.4228C26.3325 14.7293 26.0852 14.9619 25.7711 15.078L13.7179 19.5559C13.6426 19.5848 13.5652 19.6114 13.4872 19.6371C11.568 20.2738 9.38371 19.9459 7.64394 18.7597L1.3112 14.4438C0.928521 14.183 0.406737 14.2817 0.145746 14.6645C-0.115145 15.0473 -0.0163092 15.5691 0.366471 15.83L6.69911 20.1458C8.13475 21.1246 9.81813 21.633 11.4916 21.6329C12.3466 21.6329 13.1991 21.5001 14.0145 21.2297C14.1343 21.1902 14.2316 21.1557 14.3116 21.1249L26.3537 16.6509C27.0951 16.3772 27.6803 15.8275 28.0018 15.1033C28.328 14.3682 28.3352 13.5236 28.0219 12.7873C27.4353 11.403 25.8573 10.6875 24.4296 11.1585L16.7911 13.682C16.5357 13.7663 16.2599 13.7525 16.0137 13.6435C15.7081 13.5078 15.4853 13.2439 15.403 12.9207C15.2652 12.377 15.5746 11.81 16.1065 11.6299L24.8604 8.67418C25.4577 8.47245 26.1112 8.47938 26.7012 8.69357L36.6629 12.2979C38.2906 12.8874 40.114 12.1103 40.8113 10.5388L40.826 10.5061C41.1804 9.69212 41.1951 8.78924 40.8675 7.96402Z" fill="#3D271B"/>
<path d="M18.3189 2.21081C18.1786 1.76926 17.7066 1.52519 17.2655 1.66548L7.71372 4.6534C7.20896 4.81427 6.66481 4.78251 6.18073 4.56387L5.6438 4.32207C5.22155 4.13172 4.7248 4.32009 4.53464 4.74244C4.34439 5.1646 4.53267 5.66125 4.95492 5.85151L5.49095 6.09301C5.99018 6.31858 6.52591 6.43235 7.06352 6.43235C7.45323 6.43235 7.84402 6.3725 8.22235 6.25209L17.7737 3.26427C18.2151 3.12388 18.4593 2.65216 18.3189 2.21081Z" fill="#3D271B"/>
<path d="M34.9144 15.0731C34.0162 15.0731 33.2056 15.5045 32.6363 16.1935C32.0669 15.5046 31.2563 15.0731 30.3582 15.0731C28.3256 15.0731 26.6719 16.9534 26.6719 19.2646C26.6719 20.5525 27.3139 21.8629 28.5798 23.1595C29.5465 24.1495 30.8516 25.0897 32.2546 25.807C32.3745 25.8682 32.5055 25.8989 32.6364 25.8989C32.7673 25.8989 32.8983 25.8682 33.0182 25.807C33.6788 25.4692 34.3211 25.0802 34.9273 24.6506C35.3053 24.3828 35.3947 23.8592 35.1268 23.4813C34.859 23.1036 34.3357 23.014 33.9576 23.2819C33.5409 23.577 33.0905 23.8592 32.6365 24.1102C30.5043 22.931 28.3495 20.9904 28.3495 19.2647C28.3495 17.8785 29.2507 16.7508 30.3583 16.7508C31.152 16.7508 31.7976 17.5777 31.7976 18.5941C31.7976 19.0573 32.1731 19.4329 32.6364 19.4329C33.0997 19.4329 33.4751 19.0573 33.4751 18.5941C33.4751 17.5777 34.1208 16.7508 34.9145 16.7508C36.022 16.7508 36.9232 17.8785 36.9232 19.2647C36.9232 19.8872 36.6463 20.5677 36.1003 21.2873C35.8201 21.6563 35.8924 22.1824 36.2615 22.4624C36.6304 22.7425 37.1567 22.6702 37.4366 22.3012C38.2091 21.2832 38.6007 20.2616 38.6007 19.2645C38.6007 16.9534 36.947 15.0731 34.9144 15.0731Z" fill="#3D271B"/>
<mask id="path-4-outside-1_148_43" maskUnits="userSpaceOnUse" x="14.5325" y="20.1088" width="26" height="32" fill="black">
<rect fill="white" x="14.5325" y="20.1088" width="26" height="32"/>
<path d="M37.3543 49.9999V35.9846L37.8394 35.4965C38.0935 35.2409 38.2726 34.9736 38.3765 34.6946C38.4805 34.4157 38.5325 34.1136 38.5325 33.7882C38.5325 33.4628 38.4805 33.1548 38.3765 32.8643C38.2726 32.5738 38.0935 32.3007 37.8394 32.045L33.4038 27.5475H27.1662L21.7602 22.1088L19.1612 24.7236C18.2603 25.63 17.5845 26.6701 17.134 27.8439C16.6835 29.0176 16.4467 30.1972 16.4236 31.3826C16.4467 32.5679 16.6835 33.7475 17.134 34.9213C17.5845 36.095 18.2603 37.1351 19.1612 38.0416L22.1068 41.005V49.9999H37.3543ZM35.2751 47.9081H24.186V40.1334L20.6513 36.5773C19.9352 35.8568 19.398 35.0491 19.04 34.1543C18.6819 33.2594 18.5028 32.3355 18.5028 31.3826C18.5028 30.4296 18.6819 29.5115 19.04 28.6283C19.398 27.7451 19.9352 26.9432 20.6513 26.2227L21.7602 25.0722L26.2998 29.6394H32.5374L33.681 30.7899L31.1167 33.3698C30.4698 34.0206 29.9846 34.7469 29.6612 35.5488C29.3378 36.3507 29.1761 37.1816 29.1761 38.0416C29.1761 38.8551 29.3147 39.6453 29.5919 40.4123C29.8691 41.1793 30.2965 41.8766 30.8741 42.5042L35.2751 38.0765V47.9081Z"/>
</mask>
<path d="M37.3543 49.9999H39.0977C39.0977 50.9628 38.3171 51.7434 37.3543 51.7434V49.9999ZM37.3543 35.9846H35.6108C35.6108 35.5241 35.7931 35.0822 36.1177 34.7556L37.3543 35.9846ZM37.8394 35.4965L39.0759 36.7256H39.0759L37.8394 35.4965ZM37.8394 32.045L36.6029 33.2741L36.5981 33.2692L37.8394 32.045ZM33.4038 27.5475V25.8041C33.8703 25.8041 34.3174 25.9911 34.6451 26.3233L33.4038 27.5475ZM27.1662 27.5475V29.291C26.702 29.291 26.2569 29.1058 25.9296 28.7766L27.1662 27.5475ZM21.7602 22.1088L20.5237 20.8797C20.851 20.5505 21.296 20.3653 21.7602 20.3653C22.2245 20.3653 22.6695 20.5505 22.9968 20.8797L21.7602 22.1088ZM19.1612 24.7236L20.3978 25.9526L19.1612 24.7236ZM16.4236 31.3826L14.6805 31.4165C14.6801 31.3939 14.6801 31.3712 14.6805 31.3486L16.4236 31.3826ZM19.1612 38.0416L20.3978 36.8125L19.1612 38.0416ZM22.1068 41.005L23.3433 39.776C23.668 40.1026 23.8502 40.5445 23.8502 41.005H22.1068ZM22.1068 49.9999V51.7434C21.1439 51.7434 20.3633 50.9628 20.3633 49.9999H22.1068ZM35.2751 47.9081H37.0185C37.0185 48.871 36.2379 49.6515 35.2751 49.6515V47.9081ZM24.186 47.9081V49.6515C23.2231 49.6515 22.4425 48.871 22.4425 47.9081H24.186ZM24.186 40.1334L25.4225 38.9044C25.7472 39.231 25.9294 39.6729 25.9294 40.1334H24.186ZM20.6513 36.5773L21.8879 35.3482L20.6513 36.5773ZM20.6513 26.2227L21.9066 27.4326C21.9004 27.439 21.8942 27.4454 21.8879 27.4518L20.6513 26.2227ZM21.7602 25.0722L20.505 23.8623C20.8303 23.5247 21.278 23.3324 21.7468 23.3288C22.2157 23.3252 22.6662 23.5106 22.9968 23.8431L21.7602 25.0722ZM26.2998 29.6394V31.3828C25.8356 31.3828 25.3906 31.1977 25.0633 30.8684L26.2998 29.6394ZM32.5374 29.6394V27.8959C33.0017 27.8959 33.4467 28.0811 33.774 28.4103L32.5374 29.6394ZM33.681 30.7899L34.9175 29.5608C35.5934 30.2408 35.5934 31.339 34.9175 32.0189L33.681 30.7899ZM31.1167 33.3698L32.3532 34.5989L31.1167 33.3698ZM30.8741 42.5042L32.1106 43.7332C31.7752 44.0707 31.3163 44.2564 30.8406 44.2473C30.3648 44.2381 29.9135 44.0349 29.5912 43.6848L30.8741 42.5042ZM35.2751 38.0765L34.0385 36.8474C34.5363 36.3466 35.287 36.1955 35.9398 36.4647C36.5926 36.7339 37.0185 37.3703 37.0185 38.0765H35.2751ZM35.6108 49.9999V35.9846H39.0977V49.9999H35.6108ZM36.1177 34.7556L36.6029 34.2675L39.0759 36.7256L38.5908 37.2137L36.1177 34.7556ZM36.6029 34.2675C36.7182 34.1514 36.7419 34.0883 36.7429 34.0857L40.0102 35.3036C39.8032 35.8589 39.4689 36.3303 39.0759 36.7256L36.6029 34.2675ZM36.7429 34.0857C36.7678 34.019 36.789 33.9251 36.789 33.7882H40.2759C40.2759 34.3021 40.1932 34.8125 40.0102 35.3036L36.7429 34.0857ZM36.789 33.7882C36.789 33.652 36.7679 33.5436 36.735 33.4517L40.018 32.2769C40.1931 32.766 40.2759 33.2736 40.2759 33.7882H36.789ZM36.735 33.4517C36.7306 33.4394 36.7067 33.3785 36.6029 33.274L39.0759 30.8159C39.4804 31.2228 39.8145 31.7081 40.018 32.2769L36.735 33.4517ZM36.5981 33.2692L32.1625 28.7718L34.6451 26.3233L39.0807 30.8208L36.5981 33.2692ZM33.4038 29.291H27.1662V25.8041H33.4038V29.291ZM25.9296 28.7766L20.5237 23.3378L22.9968 20.8797L28.4027 26.3185L25.9296 28.7766ZM22.9968 23.3378L20.3978 25.9526L17.9247 23.4945L20.5237 20.8797L22.9968 23.3378ZM20.3978 25.9526C19.6649 26.69 19.1238 27.5251 18.7617 28.4686L15.5063 27.2192C16.0452 25.8151 16.8556 24.5701 17.9247 23.4945L20.3978 25.9526ZM18.7617 28.4686C18.3792 29.4651 18.1857 30.4452 18.1667 31.4165L14.6805 31.3486C14.7078 29.9492 14.9878 28.5702 15.5063 27.2192L18.7617 28.4686ZM18.1667 31.3486C18.1857 32.3199 18.3792 33.3 18.7617 34.2966L15.5063 35.546C14.9878 34.195 14.7078 32.816 14.6805 31.4165L18.1667 31.3486ZM18.7617 34.2966C19.1238 35.24 19.6649 36.0752 20.3978 36.8125L17.9247 39.2706C16.8556 38.1951 16.0452 36.95 15.5063 35.546L18.7617 34.2966ZM20.3978 36.8125L23.3433 39.776L20.8703 42.2341L17.9247 39.2706L20.3978 36.8125ZM23.8502 41.005V49.9999H20.3633V41.005H23.8502ZM22.1068 48.2565H37.3543V51.7434H22.1068V48.2565ZM35.2751 49.6515H24.186V46.1646H35.2751V49.6515ZM22.4425 47.9081V40.1334H25.9294V47.9081H22.4425ZM22.9495 41.3625L19.4148 37.8064L21.8879 35.3482L25.4225 38.9044L22.9495 41.3625ZM19.4148 37.8064C18.5426 36.9288 17.8711 35.9259 17.4213 34.802L20.6586 33.5065C20.925 34.1723 21.3278 34.7847 21.8879 35.3482L19.4148 37.8064ZM17.4213 34.802C16.9818 33.7036 16.7594 32.56 16.7594 31.3826H20.2463C20.2463 32.1111 20.382 32.8153 20.6586 33.5065L17.4213 34.802ZM16.7594 31.3826C16.7594 30.2051 16.9818 29.0646 17.4243 27.9733L20.6557 29.2834C20.3819 29.9585 20.2463 30.6542 20.2463 31.3826H16.7594ZM17.4243 27.9733C17.875 26.8615 18.5463 25.8674 19.4148 24.9937L21.8879 27.4518C21.324 28.019 20.9211 28.6287 20.6557 29.2834L17.4243 27.9733ZM19.3961 25.0128L20.505 23.8623L23.0155 26.2821L21.9066 27.4326L19.3961 25.0128ZM22.9968 23.8431L27.5364 28.4103L25.0633 30.8684L20.5237 26.3013L22.9968 23.8431ZM26.2998 27.8959H32.5374V31.3828H26.2998V27.8959ZM33.774 28.4103L34.9175 29.5608L32.4445 32.0189L31.3009 30.8684L33.774 28.4103ZM34.9175 32.0189L32.3532 34.5989L29.8801 32.1408L32.4445 29.5608L34.9175 32.0189ZM32.3532 34.5989C31.8601 35.0949 31.5092 35.6279 31.2781 36.201L28.0443 34.8967C28.46 33.866 29.0795 32.9463 29.8801 32.1408L32.3532 34.5989ZM31.2781 36.201C31.0378 36.7967 30.9195 37.4063 30.9195 38.0416H27.4326C27.4326 36.9569 27.6378 35.9046 28.0443 34.8967L31.2781 36.201ZM30.9195 38.0416C30.9195 38.6525 31.0228 39.2422 31.2315 39.8197L27.9523 41.005C27.6065 40.0484 27.4326 39.0577 27.4326 38.0416H30.9195ZM31.2315 39.8197C31.4265 40.359 31.7289 40.8584 32.1569 41.3235L29.5912 43.6848C28.8642 42.8948 28.3118 41.9996 27.9523 41.005L31.2315 39.8197ZM29.6376 41.2751L34.0385 36.8474L36.5116 39.3055L32.1106 43.7332L29.6376 41.2751ZM37.0185 38.0765V47.9081H33.5316V38.0765H37.0185Z" fill="#3D271B" mask="url(#path-4-outside-1_148_43)"/>
</svg>
