<svg width="29" height="29" viewBox="0 0 29 29" fill="none" xmlns="http://www.w3.org/2000/svg">
<path d="M17.9068 28.7483H10.7441C10.1111 28.7476 9.50421 28.4958 9.05661 28.0482C8.60901 27.6006 8.35723 26.9937 8.35651 26.3607V20.3918H2.38757C1.75457 20.3911 1.14771 20.1393 0.700106 19.6917C0.252507 19.2441 0.000726698 18.6372 0 18.0042V10.8415C0.000632082 10.2085 0.252382 9.60154 0.700002 9.15392C1.14762 8.7063 1.75454 8.45455 2.38757 8.45392H8.35651V2.48499C8.35714 1.85196 8.60889 1.24503 9.05651 0.797414C9.50413 0.349795 10.111 0.0980442 10.7441 0.0974121H17.9068C18.5398 0.0981388 19.1467 0.349919 19.5943 0.797519C20.0419 1.24512 20.2936 1.85198 20.2944 2.48499V8.45392H26.2633C26.8963 8.45464 27.5032 8.70643 27.9508 9.15403C28.3984 9.60162 28.6502 10.2085 28.6509 10.8415V18.0042C28.65 18.6372 28.3982 19.244 27.9506 19.6915C27.5031 20.1391 26.8963 20.3909 26.2633 20.3918H20.2944V26.3607C20.2935 26.9937 20.0417 27.6005 19.5941 28.048C19.1466 28.4956 18.5398 28.7474 17.9068 28.7483ZM2.38757 10.8415V18.0042H10.7441V26.3607H17.9068V18.0042H26.2633V10.8415H17.9068V2.48499H10.7441V10.8415H2.38757Z" fill="#222222"/>
</svg>
