<svg width="40" height="50" viewBox="0 0 40 50" fill="none" xmlns="http://www.w3.org/2000/svg">
<path d="M17.419 32.5624H22.3958V26.3124H28.6169V21.3124H22.3958V15.0624H17.419V21.3124H11.1979V26.3124H17.419V32.5624ZM19.9074 49.9999C14.1011 48.5416 9.3316 45.1562 5.59896 39.8437C1.86632 34.5312 0 28.7083 0 22.3749V7.49994L19.9074 -6.10352e-05L39.8148 7.49994V22.3749C39.8148 28.7083 37.9485 34.5312 34.2159 39.8437C30.4832 45.1562 25.7137 48.5416 19.9074 49.9999ZM19.9074 46.1249C24.6769 44.5416 28.5651 41.552 31.5719 37.1562C34.5788 32.7604 36.0822 27.8333 36.0822 22.3749V10.1249L19.9074 3.99994L3.73264 10.1249V22.3749C3.73264 27.8333 5.23606 32.7604 8.24291 37.1562C11.2498 41.552 15.1379 44.5416 19.9074 46.1249Z" fill="#142721"/>
</svg>
