<svg width="53" height="50" viewBox="0 0 53 50" fill="none" xmlns="http://www.w3.org/2000/svg">
<path fill-rule="evenodd" clip-rule="evenodd" d="M1.71053 21.3157C2.85088 22.4561 4.25439 23.0263 5.92105 23.0263C7.58772 23.0263 8.99123 22.4561 10.1316 21.3157C11.2719 20.1754 11.8421 18.7719 11.8421 17.1052C11.8421 15.4385 11.2719 14.035 10.1316 12.8947C8.99123 11.7543 7.58772 11.1841 5.92105 11.1841C4.25439 11.1841 2.85088 11.7543 1.71053 12.8947C0.570176 14.035 0 15.4385 0 17.1052C0 18.7719 0.570176 20.1754 1.71053 21.3157ZM13.8816 10.1315C15.0219 11.2719 16.4254 11.842 18.0921 11.842C19.7588 11.842 21.1623 11.2719 22.3026 10.1315C23.443 8.99117 24.0132 7.58766 24.0132 5.92099C24.0132 4.25432 23.443 2.85082 22.3026 1.71047C21.1623 0.570115 19.7588 -6.10352e-05 18.0921 -6.10352e-05C16.4254 -6.10352e-05 15.0219 0.570115 13.8816 1.71047C12.7412 2.85082 12.1711 4.25432 12.1711 5.92099C12.1711 7.58766 12.7412 8.99117 13.8816 10.1315ZM30.3289 10.1315C31.4693 11.2719 32.8728 11.842 34.5395 11.842C36.2061 11.842 37.6096 11.2719 38.75 10.1315C39.8904 8.99117 40.4605 7.58766 40.4605 5.92099C40.4605 4.25432 39.8904 2.85082 38.75 1.71047C37.6096 0.570115 36.2061 -6.10352e-05 34.5395 -6.10352e-05C32.8728 -6.10352e-05 31.4693 0.570115 30.3289 1.71047C29.1886 2.85082 28.6184 4.25432 28.6184 5.92099C28.6184 7.58766 29.1886 8.99117 30.3289 10.1315ZM42.5 21.3157C43.6404 22.4561 45.0439 23.0263 46.7105 23.0263C48.3772 23.0263 49.7807 22.4561 50.9211 21.3157C52.0614 20.1754 52.6316 18.7719 52.6316 17.1052C52.6316 15.4385 52.0614 14.035 50.9211 12.8947C49.7807 11.7543 48.3772 11.1841 46.7105 11.1841C45.0439 11.1841 43.6404 11.7543 42.5 12.8947C41.3596 14.035 40.7895 15.4385 40.7895 17.1052C40.7895 18.7719 41.3596 20.1754 42.5 21.3157ZM7.69737 47.9276C8.88158 49.3091 10.3947 49.9999 12.2368 49.9999C14.6053 49.9999 16.9518 49.8026 19.2763 49.4078C21.6009 49.0131 23.9474 48.8157 26.3158 48.8157C28.6842 48.8157 31.0307 49.0131 33.3553 49.4078C35.6798 49.8026 38.0263 49.9999 40.3947 49.9999C42.2368 49.9999 43.75 49.3091 44.9342 47.9276C46.1184 46.546 46.7105 44.9122 46.7105 43.0263C46.7105 41.1842 46.1513 39.5504 45.0329 38.1249C43.9145 36.6995 42.7193 35.3289 41.4474 34.0131C40.4825 33.0482 39.5943 32.0394 38.7829 30.9868C37.9715 29.9341 37.193 28.8377 36.4474 27.6973C35.1754 25.7236 33.739 23.9034 32.1382 22.2368C30.5373 20.5701 28.5965 19.7368 26.3158 19.7368C24.0351 19.7368 22.1053 20.5701 20.5263 22.2368C18.9474 23.9034 17.5219 25.7017 16.25 27.6315C15.5044 28.7719 14.7149 29.8793 13.8816 30.9539C13.0482 32.0284 12.1491 33.0482 11.1842 34.0131C9.91228 35.3289 8.7171 36.6995 7.59868 38.1249C6.48026 39.5504 5.92105 41.1842 5.92105 43.0263C5.92105 44.9122 6.51316 46.546 7.69737 47.9276ZM22.022 37.7709L19.359 46.4757L26.4316 41.0925L33.5043 46.4757L30.8413 37.7709L37.8854 32.7312H29.1805L26.4316 23.5682L23.6827 32.7312H14.9779L22.022 37.7709ZM26.4316 38.8304L22.5087 41.8083L24.0836 36.8546L20.4757 34.5066H24.7995L26.4316 29.5528L28.0638 34.5066H32.3876L28.7797 36.8546L30.3546 41.8083L26.4316 38.8304Z" fill="#352D00"/>
</svg>
