<svg width="34" height="33" viewBox="0 0 34 33" fill="none" xmlns="http://www.w3.org/2000/svg">
<path fill-rule="evenodd" clip-rule="evenodd" d="M10.1975 0.099C11.957 0.018 12.518 0 17 0C21.482 0 22.043 0.0195 23.801 0.099C25.559 0.1785 26.759 0.459 27.809 0.8655C28.9085 1.281 29.906 1.9305 30.731 2.7705C31.571 3.594 32.219 4.59 32.633 5.691C33.041 6.741 33.32 7.941 33.401 9.696C33.482 11.4585 33.5 12.0195 33.5 16.5C33.5 20.982 33.4805 21.543 33.401 23.3025C33.3215 25.0575 33.041 26.2575 32.633 27.3075C32.219 28.4086 31.5699 29.4063 30.731 30.231C29.906 31.071 28.9085 31.719 27.809 32.133C26.759 32.541 25.559 32.82 23.804 32.901C22.043 32.982 21.482 33 17 33C12.518 33 11.957 32.9805 10.1975 32.901C8.4425 32.8215 7.2425 32.541 6.1925 32.133C5.09138 31.7189 4.09373 31.0699 3.269 30.231C2.42957 29.407 1.77997 28.4098 1.3655 27.309C0.959 26.259 0.68 25.059 0.599 23.304C0.518 21.5415 0.5 20.9805 0.5 16.5C0.5 12.018 0.5195 11.457 0.599 9.699C0.6785 7.941 0.959 6.741 1.3655 5.691C1.78058 4.59012 2.43068 3.59297 3.2705 2.769C4.09406 1.92975 5.09071 1.28016 6.191 0.8655C7.241 0.459 8.441 0.18 10.196 0.099H10.1975ZM23.6675 3.069C21.9275 2.9895 21.4055 2.973 17 2.973C12.5945 2.973 12.0725 2.9895 10.3325 3.069C8.723 3.1425 7.85 3.411 7.268 3.6375C6.4985 3.9375 5.948 4.293 5.3705 4.8705C4.82307 5.40308 4.40177 6.05142 4.1375 6.768C3.911 7.35 3.6425 8.223 3.569 9.8325C3.4895 11.5725 3.473 12.0945 3.473 16.5C3.473 20.9055 3.4895 21.4275 3.569 23.1675C3.6425 24.777 3.911 25.65 4.1375 26.232C4.4015 26.9475 4.823 27.597 5.3705 28.1295C5.903 28.677 6.5525 29.0985 7.268 29.3625C7.85 29.589 8.723 29.8575 10.3325 29.931C12.0725 30.0105 12.593 30.027 17 30.027C21.407 30.027 21.9275 30.0105 23.6675 29.931C25.277 29.8575 26.15 29.589 26.732 29.3625C27.5015 29.0625 28.052 28.707 28.6295 28.1295C29.177 27.597 29.5985 26.9475 29.8625 26.232C30.089 25.65 30.3575 24.777 30.431 23.1675C30.5105 21.4275 30.527 20.9055 30.527 16.5C30.527 12.0945 30.5105 11.5725 30.431 9.8325C30.3575 8.223 30.089 7.35 29.8625 6.768C29.5625 5.9985 29.207 5.448 28.6295 4.8705C28.0969 4.32311 27.4485 3.90182 26.732 3.6375C26.15 3.411 25.277 3.1425 23.6675 3.069ZM14.8925 21.5865C16.0695 22.0764 17.3801 22.1426 18.6004 21.7736C19.8207 21.4046 20.8751 20.6234 21.5834 19.5634C22.2917 18.5033 22.6101 17.2303 22.4841 15.9617C22.3581 14.693 21.7955 13.5075 20.8925 12.6075C20.3169 12.0322 19.6208 11.5917 18.8545 11.3177C18.0882 11.0437 17.2706 10.943 16.4607 11.0229C15.6508 11.1028 14.8687 11.3613 14.1707 11.7797C13.4727 12.1981 12.8761 12.7661 12.424 13.4428C11.9718 14.1194 11.6753 14.8879 11.5558 15.6929C11.4363 16.4979 11.4967 17.3194 11.7328 18.0983C11.9689 18.8771 12.3747 19.5939 12.9211 20.1971C13.4674 20.8002 14.1407 21.2748 14.8925 21.5865ZM11.003 10.503C11.7905 9.71546 12.7255 9.09075 13.7544 8.66454C14.7834 8.23833 15.8863 8.01896 17 8.01896C18.1137 8.01896 19.2166 8.23833 20.2455 8.66454C21.2745 9.09075 22.2095 9.71546 22.997 10.503C23.7845 11.2905 24.4092 12.2255 24.8355 13.2544C25.2617 14.2834 25.481 15.3863 25.481 16.5C25.481 17.6137 25.2617 18.7166 24.8355 19.7455C24.4092 20.7745 23.7845 21.7095 22.997 22.497C21.4065 24.0875 19.2493 24.981 17 24.981C14.7507 24.981 12.5935 24.0875 11.003 22.497C9.41249 20.9065 8.51896 18.7493 8.51896 16.5C8.51896 14.2507 9.41249 12.0935 11.003 10.503ZM27.362 9.282C27.5572 9.0979 27.7134 8.87652 27.8214 8.63096C27.9295 8.3854 27.9872 8.12065 27.9911 7.85239C27.995 7.58414 27.9451 7.31782 27.8442 7.06921C27.7434 6.82061 27.5936 6.59476 27.4039 6.40506C27.2142 6.21535 26.9884 6.06563 26.7398 5.96478C26.4912 5.86392 26.2249 5.81396 25.9566 5.81787C25.6883 5.82178 25.4236 5.87948 25.178 5.98754C24.9325 6.09561 24.7111 6.25184 24.527 6.447C24.169 6.82654 23.9729 7.33068 23.9805 7.85239C23.9882 8.37411 24.1988 8.87232 24.5677 9.24126C24.9367 9.61021 25.4349 9.82084 25.9566 9.82845C26.4783 9.83605 26.9825 9.64003 27.362 9.282Z" fill="white"/>
</svg>
