<svg width="255" height="65" viewBox="0 0 255 65" fill="none" xmlns="http://www.w3.org/2000/svg">
<path d="M5.488 52.568C4.208 52.568 2.992 52.2267 1.84 51.544C0.730667 50.8613 0.176 49.9867 0.176 48.92C0.176 48.3653 0.261333 47.768 0.432 47.128C0.645333 46.488 0.837333 45.8907 1.008 45.336C2.33067 41.2827 3.568 37.5067 4.72 34.008C5.872 30.4667 7.024 27.0747 8.176 23.832C9.37067 20.5467 10.608 17.2613 11.888 13.976C13.2107 10.6907 14.6827 7.256 16.304 3.672C14.6827 4.01333 13.296 4.46133 12.144 5.016C10.992 5.528 10.0533 5.99733 9.328 6.424C8.60267 6.808 8.06933 7 7.728 7C7.51467 7 7.19467 6.85067 6.768 6.552C6.384 6.25333 6.04267 5.912 5.744 5.528C5.44533 5.144 5.296 4.80267 5.296 4.504C6.49067 3.992 7.87733 3.45866 9.456 2.904C11.0773 2.34933 12.8267 1.88 14.704 1.496C16.5813 1.112 18.4587 0.919998 20.336 0.919998C22.3413 0.919998 24.3893 1.19733 26.48 1.752C28.5707 2.264 30.4907 3.05333 32.24 4.12C34.032 5.144 35.4613 6.44533 36.528 8.024C37.6373 9.56 38.192 11.3733 38.192 13.464C38.192 15.7253 37.68 17.6667 36.656 19.288C35.632 20.9093 34.2667 22.2747 32.56 23.384C30.896 24.4933 29.0827 25.3893 27.12 26.072C25.1573 26.7547 23.1947 27.2667 21.232 27.608C19.312 27.9493 17.584 28.184 16.048 28.312C14.512 28.44 13.36 28.504 12.592 28.504H12.208C11.0133 32.728 9.84 36.952 8.688 41.176C7.536 45.3573 6.46933 49.1547 5.488 52.568ZM12.784 26.52C15.1733 26.3493 17.5627 25.944 19.952 25.304C22.3413 24.664 24.496 23.7893 26.416 22.68C28.3787 21.528 29.936 20.0987 31.088 18.392C32.2827 16.6853 32.88 14.7013 32.88 12.44C32.88 10.3067 32.304 8.57866 31.152 7.256C30.0427 5.93333 28.592 4.93067 26.8 4.248C25.0507 3.56533 23.1947 3.20266 21.232 3.16C19.696 6.14666 18.224 9.688 16.816 13.784C15.408 17.8373 14.064 22.0827 12.784 26.52ZM37.799 49.816C35.0683 49.816 32.9563 49.0693 31.463 47.576C30.0123 46.1253 29.287 44.2907 29.287 42.072C29.287 40.1947 29.7563 38.2107 30.695 36.12C31.6763 33.9867 32.9777 32.0027 34.599 30.168C36.2203 28.2907 38.0123 26.776 39.975 25.624C41.9377 24.472 43.9003 23.896 45.863 23.896C46.9723 23.896 48.0177 24.1947 48.999 24.792C50.023 25.3467 50.535 26.4773 50.535 28.184C50.535 29.8053 50.0657 31.32 49.127 32.728C48.1883 34.136 46.9297 35.3947 45.351 36.504C43.7723 37.6133 42.023 38.5307 40.103 39.256C38.2257 39.9387 36.327 40.3867 34.407 40.6C34.3643 40.7707 34.3217 40.9627 34.279 41.176C34.279 41.3467 34.279 41.6453 34.279 42.072C34.279 42.2853 34.3003 42.6693 34.343 43.224C34.4283 43.736 34.6203 44.2907 34.919 44.888C35.2177 45.4853 35.7083 45.9973 36.391 46.424C37.0737 46.8507 38.0123 47.064 39.207 47.064C40.999 47.064 42.791 46.5733 44.583 45.592C46.4177 44.568 48.1243 43.224 49.703 41.56C51.3243 39.896 52.6683 38.04 53.735 35.992L55.015 37.016C53.863 39.576 52.3697 41.816 50.535 43.736C48.743 45.656 46.7377 47.1493 44.519 48.216C42.343 49.2827 40.103 49.816 37.799 49.816ZM35.111 38.232C36.2203 38.104 37.4577 37.72 38.823 37.08C40.1883 36.44 41.4897 35.6293 42.727 34.648C44.007 33.6667 45.0523 32.6 45.863 31.448C46.6737 30.2533 47.079 29.0587 47.079 27.864C47.079 27.3947 46.9937 27.0747 46.823 26.904C46.6523 26.7333 46.375 26.648 45.991 26.648C45.0097 26.648 43.9857 27.0107 42.919 27.736C41.8523 28.4187 40.807 29.336 39.783 30.488C38.759 31.5973 37.8417 32.8347 37.031 34.2C36.2203 35.5653 35.5803 36.9093 35.111 38.232ZM58.0115 49.944C56.1342 49.944 54.6195 49.3893 53.4675 48.28C52.3155 47.1707 51.7395 45.4853 51.7395 43.224C51.7395 41.4747 52.0595 39.2987 52.6995 36.696C53.3822 34.0933 54.2355 31.4053 55.2595 28.632C54.9608 28.5467 54.5982 28.4827 54.1715 28.44C53.7875 28.3547 53.4035 28.2267 53.0195 28.056V26.072C53.7022 26.1573 54.2568 26.2213 54.6835 26.264C55.1528 26.3067 55.6222 26.3493 56.0915 26.392C56.9875 24.1307 57.9475 21.9547 58.9715 19.864C60.0382 17.7307 61.0835 15.832 62.1075 14.168C63.1742 12.504 64.1768 11.2027 65.1155 10.264C66.0542 9.28267 66.8862 8.792 67.6115 8.792C68.0382 8.792 68.4435 8.96267 68.8275 9.304C69.2115 9.60266 69.4035 10.0507 69.4035 10.648C69.4035 11.5013 68.9555 12.7173 68.0595 14.296C67.2062 15.8747 66.1395 17.7307 64.8595 19.864C63.5795 21.9547 62.3422 24.1947 61.1475 26.584C61.4888 26.584 61.8302 26.584 62.1715 26.584C62.5128 26.584 62.8328 26.584 63.1315 26.584C65.0088 26.584 66.6942 26.5627 68.1875 26.52C69.7235 26.4347 71.2808 26.3067 72.8595 26.136V28.248C70.5128 28.4613 68.3582 28.632 66.3955 28.76C64.4328 28.888 62.5555 28.9733 60.7635 29.016C60.6355 29.016 60.5075 29.016 60.3795 29.016C60.2515 29.016 60.1235 29.016 59.9955 29.016C59.0995 31.1067 58.3102 33.2613 57.6275 35.48C56.9875 37.656 56.6675 39.7893 56.6675 41.88C56.6675 43.6293 56.9448 44.8667 57.4995 45.592C58.0542 46.3173 58.9288 46.68 60.1235 46.68C62.2568 46.68 64.4328 45.72 66.6515 43.8C68.9128 41.8373 70.8755 39.192 72.5395 35.864L73.4355 36.504C72.3262 39.0213 70.9395 41.304 69.2755 43.352C67.6542 45.4 65.8835 47 63.9635 48.152C62.0435 49.3467 60.0595 49.944 58.0115 49.944ZM102.93 52.568C102.247 52.568 101.415 52.4187 100.434 52.12C99.4953 51.864 98.642 51.3093 97.874 50.456C97.1487 49.6453 96.786 48.4507 96.786 46.872C96.786 45.5493 97.042 43.9493 97.554 42.072C98.066 40.1947 98.706 38.104 99.474 35.8C100.242 33.496 101.01 31.0213 101.778 28.376C102.546 25.688 103.186 22.9147 103.698 20.056C104.21 17.1547 104.466 14.2107 104.466 11.224C104.466 9.73066 104.359 8.408 104.146 7.256C103.933 6.104 103.549 5.208 102.994 4.568C102.439 3.928 101.629 3.608 100.562 3.608C99.4527 3.608 98.514 3.928 97.746 4.568C96.978 5.208 96.338 6.04 95.826 7.064C95.3567 8.088 94.994 9.15467 94.738 10.264C94.5247 11.3733 94.418 12.4187 94.418 13.4C94.418 14.1253 94.482 14.8293 94.61 15.512C94.7807 16.1947 95.0367 16.8773 95.378 17.56C93.2873 17.56 91.7727 17.0693 90.834 16.088C89.8953 15.1067 89.426 13.8907 89.426 12.44C89.426 11.16 89.746 9.83733 90.386 8.472C91.026 7.10667 91.9007 5.86933 93.01 4.76C94.162 3.608 95.4847 2.69066 96.978 2.008C98.514 1.28267 100.135 0.919998 101.842 0.919998C104.743 0.919998 106.941 1.98667 108.434 4.12C109.927 6.21066 110.674 9.09066 110.674 12.76C110.674 15.1067 110.397 17.56 109.842 20.12C109.33 22.68 108.69 25.2613 107.922 27.864C107.154 30.424 106.365 32.92 105.554 35.352C104.786 37.784 104.125 40.0453 103.57 42.136C103.058 44.184 102.802 45.976 102.802 47.512C102.802 48.1947 102.887 48.728 103.058 49.112C103.271 49.496 103.698 49.688 104.338 49.688C105.575 49.688 106.962 49.112 108.498 47.96C110.077 46.808 111.698 45.2507 113.362 43.288C115.026 41.2827 116.647 39.0213 118.226 36.504C119.805 33.9867 121.234 31.3627 122.514 28.632C123.794 25.9013 124.797 23.192 125.522 20.504C126.29 17.816 126.674 15.3413 126.674 13.08C126.674 10.8187 126.269 9.09067 125.458 7.896C124.647 6.70133 123.623 5.89066 122.386 5.464C122.983 4.184 123.709 3.26667 124.562 2.712C125.458 2.11466 126.247 1.816 126.93 1.816C128.082 1.816 129.17 2.54133 130.194 3.992C131.218 5.44267 131.73 7.49067 131.73 10.136C131.73 12.44 131.282 15.0853 130.386 18.072C129.533 21.016 128.338 24.088 126.802 27.288C125.266 30.4453 123.517 33.5387 121.554 36.568C119.634 39.5547 117.586 42.264 115.41 44.696C113.277 47.0853 111.143 48.984 109.01 50.392C106.877 51.8427 104.85 52.568 102.93 52.568ZM133.808 48.92C131.93 48.92 130.522 48.3653 129.584 47.256C128.645 46.1467 128.175 44.8027 128.175 43.224C128.175 42.2427 128.346 41.0053 128.688 39.512C129.029 38.0187 129.498 36.4613 130.096 34.84C130.736 33.176 131.461 31.6187 132.272 30.168C133.082 28.7173 133.957 27.544 134.896 26.648C135.834 25.7093 136.773 25.24 137.712 25.24C138.224 25.24 138.672 25.3893 139.056 25.688C139.44 25.9867 139.632 26.456 139.632 27.096C139.632 27.6507 139.29 28.4827 138.608 29.592C137.968 30.7013 137.2 31.9813 136.304 33.432C135.45 34.8827 134.682 36.3973 134 37.976C133.36 39.512 133.04 40.984 133.04 42.392C133.04 43.7573 133.274 44.6747 133.744 45.144C134.256 45.5707 134.981 45.784 135.92 45.784C137.37 45.784 138.949 45.0587 140.656 43.608C142.362 42.1573 144.133 39.6187 145.968 35.992L146.928 37.016C145.434 40.7707 143.536 43.6933 141.232 45.784C138.928 47.8747 136.453 48.92 133.808 48.92ZM141.36 20.056C140.549 20.056 139.802 19.864 139.12 19.48C138.48 19.0533 138.16 18.4133 138.16 17.56C138.16 16.536 138.714 15.6613 139.824 14.936C140.933 14.2107 142.085 13.848 143.28 13.848C144.048 13.848 144.688 14.0187 145.2 14.36C145.754 14.7013 146.032 15.32 146.032 16.216C146.032 17.112 145.541 17.9867 144.56 18.84C143.578 19.6507 142.512 20.056 141.36 20.056ZM150.329 48.92C148.323 48.92 146.83 48.2587 145.849 46.936C144.91 45.6133 144.441 43.9067 144.441 41.816C144.441 39.8107 144.825 37.4213 145.593 34.648C146.361 31.8747 147.363 28.952 148.601 25.88C149.881 22.808 151.267 19.8 152.76 16.856C154.297 13.912 155.833 11.2453 157.369 8.856C158.905 6.424 160.313 4.504 161.593 3.096C162.915 1.64533 163.982 0.919998 164.793 0.919998C165.347 0.919998 165.817 1.21866 166.201 1.816C166.585 2.37067 166.883 3.05333 167.097 3.864C167.353 4.67466 167.481 5.44267 167.481 6.168C167.481 7.27733 167.182 8.74933 166.585 10.584C166.03 12.376 165.219 14.36 164.153 16.536C163.129 18.712 161.891 20.952 160.441 23.256C159.033 25.5173 157.454 27.6933 155.705 29.784C153.998 31.832 152.163 33.624 150.201 35.16C150.03 36.2267 149.859 37.3573 149.689 38.552C149.561 39.704 149.497 40.7067 149.497 41.56C149.497 44.504 150.414 45.976 152.249 45.976C153.187 45.976 154.147 45.592 155.129 44.824C156.153 44.0133 157.134 42.968 158.073 41.688C159.011 40.3653 159.865 38.936 160.633 37.4C161.059 35.224 161.699 32.8773 162.553 30.36C163.406 27.8427 164.387 25.3253 165.497 22.808C166.649 20.248 167.865 17.816 169.145 15.512C170.425 13.1653 171.683 11.096 172.921 9.304C174.158 7.46933 175.289 6.04 176.312 5.016C177.379 3.94933 178.254 3.416 178.937 3.416C179.491 3.416 179.961 3.71466 180.345 4.312C180.771 4.86666 181.091 5.57066 181.305 6.424C181.561 7.23467 181.689 8.024 181.689 8.792C181.689 10.1147 181.326 11.864 180.601 14.04C179.875 16.1733 178.83 18.52 177.465 21.08C176.142 23.5973 174.521 26.0933 172.601 28.568C170.681 31.0427 168.505 33.24 166.073 35.16C165.859 36.1413 165.689 37.1867 165.561 38.296C165.433 39.4053 165.369 40.3867 165.369 41.24C165.369 44.3973 166.243 45.976 167.993 45.976C169.102 45.976 170.233 45.4853 171.385 44.504C172.537 43.48 173.625 42.1787 174.649 40.6C175.673 39.0213 176.547 37.4213 177.273 35.8L178.873 36.632C177.081 40.4293 175.118 43.4373 172.985 45.656C170.894 47.832 168.59 48.92 166.073 48.92C164.11 48.92 162.659 48.28 161.721 47C160.782 45.72 160.291 44.056 160.249 42.008C158.798 44.184 157.241 45.8693 155.577 47.064C153.955 48.3013 152.206 48.92 150.329 48.92ZM151.353 31.576C152.761 30.0827 154.105 28.44 155.385 26.648C156.707 24.8133 157.923 22.9573 159.033 21.08C160.142 19.2027 161.102 17.3893 161.913 15.64C162.766 13.8907 163.427 12.312 163.897 10.904C164.366 9.496 164.601 8.38667 164.601 7.576C164.601 7.36266 164.601 7.192 164.601 7.064C164.601 6.936 164.558 6.85066 164.473 6.808C164.174 6.808 163.641 7.29867 162.873 8.28C162.105 9.21867 161.209 10.52 160.185 12.184C159.203 13.848 158.158 15.7467 157.049 17.88C155.982 19.9707 154.937 22.2107 153.913 24.6C152.931 26.9467 152.078 29.272 151.353 31.576ZM167.097 31.64C168.803 29.848 170.361 27.928 171.769 25.88C173.219 23.7893 174.457 21.7413 175.481 19.736C176.547 17.688 177.358 15.832 177.913 14.168C178.51 12.4613 178.809 11.1173 178.809 10.136C178.809 9.92266 178.809 9.77333 178.809 9.688C178.809 9.56 178.787 9.45333 178.745 9.368C178.318 9.368 177.635 9.98667 176.697 11.224C175.801 12.4613 174.777 14.1467 173.625 16.28C172.473 18.3707 171.321 20.7387 170.169 23.384C169.017 26.0293 167.993 28.7813 167.097 31.64ZM179.272 50.008C177.864 50.008 176.648 49.5387 175.623 48.6C174.557 47.6613 174.023 46.2533 174.023 44.376C174.023 42.8827 174.365 41.2613 175.047 39.512C175.73 37.7627 176.669 36.0347 177.864 34.328C179.058 32.6213 180.424 31.0853 181.96 29.72C183.496 28.312 185.138 27.1813 186.888 26.328C188.637 25.4747 190.386 25.048 192.135 25.048C193.97 25.048 195.528 25.5173 196.808 26.456C198.088 27.3947 198.728 28.632 198.728 30.168C198.728 31.32 198.322 32.152 197.512 32.664C196.701 33.176 195.741 33.3253 194.632 33.112C194.717 32.728 194.781 32.344 194.824 31.96C194.909 31.576 194.952 31.1707 194.952 30.744C194.952 29.8907 194.781 29.1227 194.44 28.44C194.098 27.7573 193.373 27.416 192.264 27.416C191.069 27.416 189.853 27.8213 188.616 28.632C187.378 29.4427 186.184 30.5093 185.032 31.832C183.922 33.112 182.92 34.5413 182.024 36.12C181.128 37.656 180.424 39.1707 179.911 40.664C179.4 42.1573 179.144 43.5013 179.144 44.696C179.144 46.0613 179.634 46.744 180.616 46.744C181.597 46.744 182.685 46.2747 183.88 45.336C185.074 44.3547 186.269 43.1387 187.464 41.688C188.701 40.2373 189.874 38.7653 190.984 37.272C192.093 35.736 193.053 34.4347 193.864 33.368C193.992 33.1547 194.162 33.048 194.376 33.048C194.546 33.0907 194.866 33.1973 195.336 33.368C195.848 33.496 196.317 33.7093 196.744 34.008C197.17 34.3067 197.384 34.6907 197.384 35.16C197.384 35.5867 197.192 36.1413 196.808 36.824C196.466 37.464 196.04 38.1893 195.528 39C195.058 39.768 194.632 40.5573 194.248 41.368C193.906 42.136 193.736 42.8827 193.736 43.608C193.736 44.1627 193.885 44.696 194.184 45.208C194.482 45.6773 194.973 45.912 195.656 45.912C196.68 45.912 198.109 45.1653 199.944 43.672C201.821 42.136 203.72 39.5547 205.64 35.928L206.856 37.144C205.832 39.448 204.594 41.496 203.144 43.288C201.736 45.0373 200.242 46.4027 198.664 47.384C197.085 48.408 195.485 48.92 193.864 48.92C192.114 48.92 190.813 48.3653 189.96 47.256C189.106 46.1467 188.637 44.952 188.552 43.672C188.552 43.5867 188.552 43.5227 188.552 43.48C188.552 43.4373 188.552 43.3947 188.552 43.352C186.845 45.4 185.266 47.0213 183.816 48.216C182.408 49.4107 180.893 50.008 179.272 50.008ZM207.325 64.92C206.258 64.92 205.256 64.6 204.317 63.96C203.421 63.32 202.973 62.2747 202.973 60.824C202.973 59.4587 203.357 58.2213 204.125 57.112C204.936 56.0453 205.981 55.0427 207.261 54.104C208.584 53.208 209.992 52.376 211.485 51.608C212.978 50.84 214.429 50.1147 215.837 49.432C216.306 48.28 216.754 47.0427 217.181 45.72C217.608 44.3973 218.013 42.968 218.397 41.432C216.904 43.3093 215.325 44.8667 213.661 46.104C212.04 47.3413 210.376 47.96 208.669 47.96C206.962 47.96 205.597 47.3627 204.573 46.168C203.592 44.9733 203.101 43.3947 203.101 41.432C203.101 39.1707 203.656 37.0587 204.765 35.096C205.917 33.0907 207.389 31.32 209.181 29.784C210.973 28.2053 212.893 26.9893 214.941 26.136C216.989 25.24 218.952 24.792 220.829 24.792C222.194 24.792 223.218 25.048 223.901 25.56C224.584 26.0293 224.925 26.584 224.925 27.224C224.925 27.736 224.776 28.1413 224.477 28.44C224.178 28.7387 223.986 28.9093 223.901 28.952C223.474 28.4827 223.026 28.184 222.557 28.056C222.13 27.8853 221.618 27.8 221.021 27.8C219.357 27.8 217.757 28.2693 216.221 29.208C214.685 30.1467 213.32 31.3627 212.125 32.856C210.973 34.3067 210.056 35.8213 209.373 37.4C208.69 38.9787 208.349 40.408 208.349 41.688C208.349 42.5413 208.541 43.2027 208.925 43.672C209.309 44.0987 209.778 44.312 210.333 44.312C211.528 44.312 212.978 43.544 214.685 42.008C216.392 40.4293 218.034 38.5307 219.613 36.312C219.698 35.9707 219.762 35.672 219.805 35.416C219.89 35.1173 219.954 34.84 219.997 34.584C220.424 32.8773 220.936 31.6187 221.533 30.808C222.13 29.9973 222.962 29.592 224.029 29.592C224.242 29.592 224.498 29.6133 224.797 29.656C225.138 29.6987 225.501 29.7627 225.885 29.848C225.885 30.616 225.672 31.8747 225.245 33.624C224.818 35.3733 224.242 37.4213 223.517 39.768C222.792 42.072 221.981 44.44 221.085 46.872C222.408 46.3173 223.752 45.5493 225.117 44.568C226.482 43.544 227.741 42.328 228.893 40.92C230.045 39.4693 230.92 37.8693 231.517 36.12L232.669 37.272C231.986 39.2347 230.92 41.0267 229.469 42.648C228.061 44.2693 226.525 45.6773 224.861 46.872C223.197 48.024 221.661 48.92 220.253 49.56C219.101 52.376 217.842 54.936 216.477 57.24C215.154 59.5867 213.725 61.4427 212.189 62.808C210.696 64.216 209.074 64.92 207.325 64.92ZM207.069 61.976C207.837 61.976 208.882 61.2507 210.205 59.8C211.57 58.3493 213.042 55.896 214.621 52.44C213.042 53.208 211.592 53.9973 210.269 54.808C208.946 55.6187 207.88 56.472 207.069 57.368C206.258 58.264 205.853 59.2027 205.853 60.184C205.853 60.7387 205.96 61.1653 206.173 61.464C206.429 61.8053 206.728 61.976 207.069 61.976ZM237.362 49.816C234.631 49.816 232.519 49.0693 231.026 47.576C229.575 46.1253 228.849 44.2907 228.849 42.072C228.849 40.1947 229.319 38.2107 230.258 36.12C231.239 33.9867 232.54 32.0027 234.161 30.168C235.783 28.2907 237.575 26.776 239.538 25.624C241.5 24.472 243.463 23.896 245.426 23.896C246.535 23.896 247.58 24.1947 248.562 24.792C249.586 25.3467 250.098 26.4773 250.098 28.184C250.098 29.8053 249.628 31.32 248.69 32.728C247.751 34.136 246.492 35.3947 244.914 36.504C243.335 37.6133 241.586 38.5307 239.666 39.256C237.788 39.9387 235.89 40.3867 233.97 40.6C233.927 40.7707 233.884 40.9627 233.842 41.176C233.842 41.3467 233.842 41.6453 233.842 42.072C233.842 42.2853 233.863 42.6693 233.906 43.224C233.991 43.736 234.183 44.2907 234.482 44.888C234.78 45.4853 235.271 45.9973 235.954 46.424C236.636 46.8507 237.575 47.064 238.77 47.064C240.562 47.064 242.354 46.5733 244.146 45.592C245.98 44.568 247.687 43.224 249.266 41.56C250.887 39.896 252.231 38.04 253.298 35.992L254.578 37.016C253.426 39.576 251.932 41.816 250.098 43.736C248.306 45.656 246.3 47.1493 244.082 48.216C241.906 49.2827 239.666 49.816 237.362 49.816ZM234.674 38.232C235.783 38.104 237.02 37.72 238.385 37.08C239.751 36.44 241.052 35.6293 242.29 34.648C243.57 33.6667 244.615 32.6 245.426 31.448C246.236 30.2533 246.642 29.0587 246.642 27.864C246.642 27.3947 246.556 27.0747 246.385 26.904C246.215 26.7333 245.938 26.648 245.554 26.648C244.572 26.648 243.548 27.0107 242.482 27.736C241.415 28.4187 240.37 29.336 239.345 30.488C238.322 31.5973 237.404 32.8347 236.594 34.2C235.783 35.5653 235.143 36.9093 234.674 38.232Z" fill="white"/>
</svg>
