<svg width="20" height="20" viewBox="0 0 20 20" fill="none" xmlns="http://www.w3.org/2000/svg">
<path d="M1 3C1 1.89543 1.89543 1 3 1H6.27924C6.70967 1 7.09181 1.27543 7.22792 1.68377L8.72574 6.17721C8.88311 6.64932 8.66938 7.16531 8.22427 7.38787L5.96701 8.5165C7.06925 10.9612 9.03878 12.9308 11.4835 14.033L12.6121 11.7757C12.8347 11.3306 13.3507 11.1169 13.8228 11.2743L18.3162 12.7721C18.7246 12.9082 19 13.2903 19 13.7208V17C19 18.1046 18.1046 19 17 19H16C7.71573 19 1 12.2843 1 4V3Z" stroke="#23274C" stroke-width="2" stroke-linecap="round" stroke-linejoin="round"/>
</svg>
