<svg width="30" height="30" viewBox="0 0 30 30" fill="none" xmlns="http://www.w3.org/2000/svg">
<path d="M22.6844 16.3931C19.1836 16.3931 16.3354 19.25 16.3354 22.7616C16.3354 26.2733 19.1836 29.1301 22.6844 29.1301C26.1852 29.1301 29.0334 26.2732 29.0334 22.7616C29.0333 19.2499 26.1852 16.3931 22.6844 16.3931ZM22.6844 27.8894C19.8656 27.8894 17.5723 25.589 17.5723 22.7615C17.5723 19.934 19.8656 17.6336 22.6844 17.6336C25.5032 17.6336 27.7965 19.934 27.7965 22.7615C27.7965 25.5891 25.5032 27.8894 22.6844 27.8894Z" fill="black"/>
<path d="M24.6172 19.6182C24.3266 19.4385 23.9455 19.5291 23.7663 19.8208L20.5496 25.055C20.3704 25.3466 20.4607 25.7287 20.7516 25.9085C20.8527 25.971 20.9647 26.0009 21.0754 26.0009C21.2829 26.0009 21.4857 25.8962 21.6025 25.706L24.8191 20.4719C24.9984 20.1802 24.908 19.798 24.6172 19.6182Z" fill="black"/>
<path d="M5.02646 24.756L4.93205 24.6968C4.41934 24.3749 4.06206 23.8709 3.92593 23.2777C3.78988 22.6845 3.89163 22.0745 4.21254 21.5601C4.39378 21.2697 4.30596 20.8869 4.01646 20.7052C3.7268 20.5233 3.34528 20.6116 3.16421 20.9019C2.66799 21.6971 2.5105 22.6397 2.72068 23.5559C2.93086 24.472 3.48323 25.2507 4.27595 25.7484L4.37044 25.8077C4.47244 25.8717 4.58582 25.9023 4.69787 25.9023C4.90393 25.9023 5.10537 25.799 5.2227 25.611C5.40385 25.3205 5.31604 24.9377 5.02646 24.756Z" fill="black"/>
<path d="M17.6464 4.31986L17.7408 4.37908C18.8012 5.04489 19.1241 6.45202 18.4603 7.51575C18.2791 7.80614 18.3669 8.18892 18.6564 8.37063C18.7584 8.43465 18.8718 8.46525 18.9839 8.46525C19.1899 8.46525 19.3913 8.36203 19.5087 8.17395C20.5343 6.53035 20.0356 4.35625 18.397 3.32743L18.3025 3.26813C18.0128 3.08642 17.6314 3.1745 17.4502 3.46489C17.2691 3.75529 17.3569 4.13815 17.6464 4.31986Z" fill="black"/>
<path d="M16.5848 17.8345C16.5848 17.8344 16.5848 17.8344 16.5848 17.8343L21.7379 9.57594C22.6073 8.18262 22.8837 6.53315 22.5163 4.93123C22.1488 3.3294 21.1815 1.96693 19.7926 1.09493L19.698 1.03554C18.7204 0.421758 17.5967 0.09729 16.4485 0.09729C14.318 0.09729 12.372 1.17756 11.2431 2.9869L0.936841 19.5039C0.0674341 20.8973 -0.208955 22.5467 0.158465 24.1486C0.525885 25.7504 1.49325 27.1129 2.88212 27.9849L2.9767 28.0443C3.95429 28.658 5.07798 28.9824 6.22625 28.9824C8.35673 28.9824 10.3027 27.9022 11.4316 26.0928L16.5847 17.8345C16.5848 17.8345 16.5848 17.8345 16.5848 17.8345ZM12.2915 3.64519C13.193 2.2005 14.747 1.33801 16.4485 1.33801C17.3645 1.33801 18.2612 1.59714 19.0418 2.08719L19.1363 2.14658C20.2454 2.84282 21.0176 3.93053 21.311 5.20947C21.6044 6.4884 21.3836 7.8053 20.6895 8.91774L15.8645 16.6505L7.46646 11.3779L12.2915 3.64519ZM10.3832 25.4348C9.48175 26.8795 7.92772 27.742 6.22617 27.742C5.31026 27.742 4.41356 27.4829 3.63296 26.9929L3.53838 26.9335C2.42936 26.2372 1.65709 25.1494 1.36371 23.8706C1.07034 22.5916 1.29107 21.2747 1.98518 20.1623L6.8102 12.4296L15.2083 17.7021L10.3832 25.4348Z" fill="black"/>
</svg>
