<svg width="32" height="32" viewBox="0 0 32 32" fill="none" xmlns="http://www.w3.org/2000/svg">
<g clip-path="url(#clip0_72_32)">
<path d="M20.5463 25.309C19.5373 24.3 17.8954 24.3 16.8863 25.309C15.8774 26.318 15.8774 27.9599 16.8864 28.969C17.3908 29.4734 18.0536 29.7257 18.7163 29.7257C19.379 29.7257 20.0418 29.4734 20.5463 28.969C20.5463 28.969 20.5463 28.969 20.5463 28.9689C21.5553 27.9598 21.5553 26.318 20.5463 25.309ZM19.6449 28.0674C19.1329 28.5793 18.2998 28.5793 17.7878 28.0675C17.2759 27.5555 17.2759 26.7223 17.7879 26.2104C18.0439 25.9544 18.3801 25.8265 18.7164 25.8265C19.0526 25.8265 19.3889 25.9545 19.6448 26.2103C20.1568 26.7223 20.1568 27.5555 19.6449 28.0674Z" fill="#091C26"/>
<path d="M28.9792 16.8763C28.4904 16.3874 27.8406 16.1182 27.1493 16.1182C26.458 16.1182 25.8081 16.3874 25.3194 16.8762C24.8305 17.365 24.5613 18.0149 24.5613 18.7062C24.5613 19.3975 24.8305 20.0474 25.3193 20.5361C25.8082 21.0249 26.458 21.2942 27.1493 21.2942C27.8406 21.2942 28.4905 21.0249 28.9792 20.5361C29.468 20.0473 29.7373 19.3975 29.7373 18.7062C29.7373 18.0149 29.468 17.365 28.9792 16.8763ZM28.0777 19.6347C27.8297 19.8827 27.5 20.0192 27.1493 20.0192C26.7986 20.0192 26.4688 19.8826 26.2208 19.6347C26.2208 19.6346 26.2208 19.6346 26.2208 19.6346C25.9728 19.3866 25.8362 19.0569 25.8362 18.7062C25.8362 18.3555 25.9728 18.0257 26.2208 17.7777C26.4688 17.5297 26.7985 17.3931 27.1493 17.3931C27.5 17.3931 27.8297 17.5297 28.0778 17.7777C28.3258 18.0257 28.4623 18.3554 28.4623 18.7062C28.4623 19.0569 28.3258 19.3866 28.0777 19.6347Z" fill="#091C26"/>
<path d="M30.5808 15.2745C29.6641 14.3579 28.4454 13.8531 27.1491 13.8531C25.8529 13.8531 24.6341 14.3579 23.7175 15.2745C23.5184 15.4736 23.3376 15.6886 23.1769 15.9175L15.5515 11.7305C15.5462 11.7194 15.5415 11.7081 15.5361 11.6971C15.3284 11.2725 15.0262 10.9137 14.6555 10.6421C14.8052 10.2408 14.9151 9.80943 14.9815 9.35205C15.2256 7.67199 14.8553 5.83299 13.9387 4.17398C13.0222 2.51492 11.6625 1.22248 10.1102 0.534726C8.49778 -0.179651 6.86878 -0.163776 5.52328 0.579476C5.37534 0.661226 5.2659 0.798414 5.21909 0.960851C5.17221 1.12329 5.1919 1.29766 5.27359 1.4456L10.0118 10.022L1.4354 5.28392C1.28752 5.20217 1.11296 5.18261 0.950644 5.22942C0.788144 5.27623 0.650956 5.38567 0.569269 5.53361C-0.174045 6.87905 -0.18992 8.50799 0.524519 10.1205C1.21227 11.6728 2.50459 13.0324 4.16365 13.949C5.48959 14.6815 6.93009 15.0651 8.31291 15.0651C8.66041 15.0651 9.00447 15.0408 9.34185 14.9918C9.7996 14.9253 10.2312 14.8153 10.6329 14.6654C10.9239 15.0633 11.3107 15.3783 11.7637 15.5826L15.9279 23.1665C15.6991 23.3273 15.484 23.508 15.2849 23.7071C13.3927 25.5995 13.3927 28.6782 15.2849 30.5705C16.231 31.5165 17.4737 31.9896 18.7165 31.9896C19.9592 31.9896 21.2021 31.5165 22.1481 30.5705C23.8589 28.8597 24.0475 26.1835 22.6234 24.2592C22.6052 24.2122 22.5812 24.167 22.5516 24.1245L18.8815 18.8711L24.1349 22.5411C24.1772 22.5708 24.2225 22.5948 24.2695 22.613C25.13 23.2498 26.1406 23.5641 27.1483 23.5641C28.394 23.564 29.6351 23.0835 30.5808 22.1378C32.473 20.2456 32.473 17.1667 30.5808 15.2745ZM10.2296 12.0286C10.0652 12.5082 10.0312 13.011 10.1236 13.4959C8.61528 14.0383 6.61416 13.8464 4.78003 12.8331C2.17146 11.3919 0.786894 8.7803 1.4324 6.7388L10.3758 11.6797C10.3202 11.7919 10.2709 11.9081 10.2296 12.0286ZM6.72872 1.4431C7.59559 1.1701 8.5906 1.25585 9.59372 1.70029C10.8932 2.27598 12.0399 3.37336 12.8227 4.79042C13.6055 6.20736 13.9241 7.7623 13.7198 9.1688C13.67 9.51124 13.5904 9.83387 13.4831 10.1337C12.8764 10.0183 12.2514 10.101 11.6866 10.3773C11.6807 10.3802 11.6752 10.3834 11.6694 10.3862L6.72872 1.4431ZM11.3492 12.9747C11.3492 12.077 12.0769 11.3492 12.9746 11.3492C13.8723 11.3492 14.6 12.077 14.6 12.9747C14.6 13.8724 13.8723 14.6001 12.9746 14.6001C12.0769 14.6001 11.3492 13.8724 11.3492 12.9747ZM21.3881 24.6854C21.4119 24.7583 21.449 24.8275 21.4991 24.8892C22.6547 26.3145 22.5461 28.3694 21.2465 29.669C19.8514 31.064 17.5814 31.0642 16.1862 29.669C14.7911 28.2738 14.7911 26.0038 16.1861 24.6086C16.4477 24.3471 16.7459 24.1289 17.0726 23.9598C17.2252 23.8808 17.3394 23.7436 17.3895 23.5793C17.4396 23.415 17.4211 23.2373 17.3384 23.0867L13.3443 15.8124C13.6232 15.7737 13.8974 15.6934 14.1593 15.5721L15.8437 16.7488L21.3881 24.6854ZM29.6793 21.2363C28.3796 22.536 26.3248 22.6444 24.8996 21.4888C24.8378 21.4388 24.7686 21.4017 24.6958 21.3779L16.7594 15.8335L15.2078 14.7496C15.3545 14.5641 15.4782 14.3598 15.5764 14.1402C15.6121 14.0604 15.6447 13.9788 15.6734 13.8951C15.7376 13.7078 15.7817 13.5169 15.8065 13.325L23.0973 17.3283C23.2479 17.4111 23.4255 17.4294 23.5899 17.3794C23.7542 17.3293 23.8914 17.2151 23.9704 17.0625C24.1394 16.7357 24.3577 16.4375 24.6192 16.1761C26.0144 14.7809 28.2843 14.7809 29.6795 16.1761C31.0747 17.5713 31.0744 19.8411 29.6793 21.2363Z" fill="#091C26"/>
<path d="M13.1481 6.76749C13.0652 6.42536 12.7207 6.21518 12.3786 6.29811C12.0364 6.38099 11.8263 6.72549 11.9092 7.06768C12.0615 7.6963 12.0931 8.32662 12.0008 8.89049C11.9438 9.23787 12.1793 9.56568 12.5267 9.62262C12.5616 9.62837 12.5963 9.63118 12.6305 9.63118C12.9372 9.63118 13.2075 9.40925 13.2587 9.09668C13.3785 8.36587 13.3403 7.56043 13.1481 6.76749Z" fill="#091C26"/>
<path d="M12.4577 5.00677C11.617 3.48483 10.2645 2.34183 8.8402 1.94933C8.5007 1.85583 8.14983 2.05508 8.05626 2.39446C7.96276 2.73389 8.16201 3.08483 8.50139 3.1784C9.60164 3.48158 10.6635 4.39552 11.3418 5.62328C11.4581 5.83371 11.6758 5.95259 11.9003 5.95259C12.0046 5.95259 12.1103 5.92696 12.208 5.87303C12.5162 5.70271 12.628 5.3149 12.4577 5.00677Z" fill="#091C26"/>
</g>
<defs>
<clipPath id="clip0_72_32">
<rect width="32" height="32" fill="white"/>
</clipPath>
</defs>
</svg>
