<svg width="32" height="32" viewBox="0 0 32 32" fill="none" xmlns="http://www.w3.org/2000/svg">
<g clip-path="url(#clip0_72_48)">
<path d="M26.6043 3.37925C26.4119 3.18675 26.0999 3.18675 25.9075 3.37918L25.3292 3.95744C25.1367 4.14987 25.1367 4.46181 25.3291 4.65425C25.4254 4.7505 25.5514 4.79856 25.6776 4.79856C25.8036 4.79856 25.9298 4.7505 26.0259 4.65425L26.6043 4.076C26.7968 3.88362 26.7968 3.57168 26.6043 3.37925Z" fill="#091C26"/>
<path d="M13.8474 14.3758C13.0006 13.7676 12.0085 13.3899 11.258 13.3899C10.4674 13.3899 10.1564 13.8031 10.0414 14.0495C9.78707 14.5944 9.74394 15.21 9.91344 15.879C9.98569 16.1641 10.0218 16.4588 10.0209 16.7579C10.0219 17.054 9.98575 17.3487 9.91344 17.6338C9.74394 18.3028 9.78707 18.9183 10.0414 19.4633C10.1564 19.7097 10.4673 20.1228 11.2579 20.1228C11.258 20.1228 11.258 20.1228 11.258 20.1228C12.0084 20.1228 13.0006 19.7451 13.8474 19.137C14.4214 18.7248 15.3845 17.8689 15.3845 16.7684V16.7442C15.3845 15.6439 14.4215 14.788 13.8474 14.3758ZM14.3991 16.7685C14.3991 17.2439 13.9779 17.8302 13.2726 18.3367C12.6056 18.8157 11.796 19.1375 11.2581 19.1375C11.0873 19.1375 10.9603 19.1018 10.9344 19.0465C10.7787 18.7127 10.7566 18.3189 10.8688 17.8758C10.9613 17.5107 11.0076 17.1335 11.0064 16.7579C11.0076 16.3792 10.9613 16.0021 10.8688 15.637C10.7566 15.1939 10.7787 14.8 10.9344 14.4663C10.9603 14.411 11.0873 14.3753 11.2581 14.3753C12.3229 14.3753 14.3991 15.6541 14.3991 16.7443V16.7685Z" fill="#091C26"/>
<path d="M20.147 13.5876C19.8102 12.8396 19.0624 12.3562 18.2419 12.3562C17.9455 12.3562 17.6575 12.4183 17.3855 12.5407C16.4011 12.984 14.8521 14.5731 15.3755 15.7357C15.6418 16.3274 16.3746 16.6532 17.4387 16.6532C18.0557 16.6532 18.6769 16.5395 19.1 16.349C19.6085 16.1201 19.9976 15.7067 20.1954 15.1851C20.3932 14.6636 20.376 14.0962 20.147 13.5876ZM18.6955 15.4505C18.4023 15.5825 17.909 15.6678 17.4388 15.6678C16.7737 15.6678 16.3495 15.4984 16.2741 15.3311C16.1007 14.9458 17.0358 13.7789 17.7901 13.4392C17.9339 13.3745 18.0859 13.3416 18.2419 13.3416C18.6754 13.3416 19.0705 13.597 19.2484 13.992C19.4981 14.5466 19.25 15.2008 18.6955 15.4505Z" fill="#091C26"/>
<path d="M16.6462 11.1731C16.5478 10.6863 16.2659 10.267 15.8522 9.99239C15.5464 9.78932 15.1913 9.68188 14.8253 9.68188C14.2001 9.68188 13.6207 9.99251 13.2752 10.5128C13.0154 10.9041 12.8071 11.5416 12.7445 12.1368C12.6596 12.945 12.8552 13.5511 13.2954 13.8433C13.4821 13.9673 13.7033 14.0301 13.9528 14.0301C14.8511 14.0301 15.9677 13.1793 16.3728 12.5693C16.6474 12.1556 16.7445 11.6598 16.6462 11.1731ZM15.5518 12.0243C15.2622 12.4605 14.4186 13.0447 13.9527 13.0447C13.9021 13.0447 13.8623 13.0368 13.8405 13.0223C13.7688 12.9748 13.6741 12.7203 13.7246 12.2398C13.7756 11.7544 13.9502 11.2778 14.0961 11.0579C14.2585 10.8134 14.5311 10.6673 14.8253 10.6673C14.9966 10.6673 15.1633 10.7178 15.3071 10.8133C15.5015 10.9423 15.6341 11.1394 15.6803 11.3681C15.7265 11.5969 15.6808 11.8299 15.5518 12.0243Z" fill="#091C26"/>
<path d="M19.1 17.1638C18.6769 16.9733 18.0557 16.8596 17.4387 16.8596C16.3746 16.8596 15.6418 17.1855 15.3755 17.7772C14.8521 18.9397 16.401 20.5289 17.3855 20.9722C17.6575 21.0946 17.9456 21.1566 18.2419 21.1566C19.0624 21.1566 19.8102 20.6733 20.147 19.9253C20.6196 18.8752 20.1499 17.6365 19.1 17.1638ZM19.2484 19.5207C19.0705 19.9159 18.6754 20.1711 18.2419 20.1711C18.086 20.1711 17.934 20.1383 17.7901 20.0736C17.0357 19.7339 16.1006 18.5669 16.274 18.1816C16.3494 18.0144 16.7736 17.845 17.4387 17.845C17.9089 17.845 18.4022 17.9303 18.6955 18.0623C19.25 18.3121 19.4981 18.9662 19.2484 19.5207Z" fill="#091C26"/>
<path d="M16.3728 20.9437C15.9678 20.3337 14.8512 19.4829 13.9527 19.4829C13.7033 19.4829 13.4823 19.5458 13.2954 19.6697C12.8552 19.962 12.6596 20.568 12.7445 21.3762C12.8071 21.9715 13.0154 22.609 13.2752 23.0002C13.6206 23.5205 14.2001 23.8311 14.8253 23.8311C15.1912 23.8311 15.5464 23.7237 15.8522 23.5207C16.2659 23.246 16.5478 22.8267 16.6462 22.3399C16.7445 21.8532 16.6475 21.3574 16.3728 20.9437ZM15.6803 22.145C15.6341 22.3737 15.5016 22.5707 15.3072 22.6999C15.1635 22.7953 14.9968 22.8458 14.8253 22.8458C14.5311 22.8458 14.2586 22.6998 14.0962 22.4553C13.9501 22.2354 13.7756 21.7587 13.7246 21.2733C13.6741 20.7928 13.7689 20.5384 13.8406 20.4908C13.8623 20.4764 13.9021 20.4684 13.9527 20.4684C14.4186 20.4684 15.2622 21.0528 15.5518 21.4889C15.6809 21.6832 15.7265 21.9162 15.6803 22.145Z" fill="#091C26"/>
<path d="M31.5301 3.63707L28.9383 1.04525C28.9382 1.04525 28.9382 1.04519 28.9382 1.04519C28.9382 1.04519 28.9382 1.04513 28.9382 1.04513L28.363 0.469938C28.0599 0.166938 27.6569 0 27.2284 0C26.7997 0 26.3967 0.166938 26.0936 0.470001L22.6479 3.91582C20.5243 2.41432 17.5587 2.61207 15.6587 4.51195L3.9885 16.182C3.79606 16.3744 3.79606 16.6864 3.9885 16.8788C4.181 17.0712 4.49294 17.0712 4.68531 16.8788L16.3555 5.2087C17.9713 3.59307 20.5282 3.48019 22.2765 4.86801C22.2922 4.89007 22.3095 4.91139 22.3292 4.93114L27.0689 9.67083C27.0889 9.6909 27.1104 9.70827 27.1329 9.72421C27.7572 10.5091 28.0972 11.4743 28.0972 12.4923C28.0972 13.6831 27.6334 14.8026 26.7914 15.6446L11.7336 30.7023C11.5323 30.9037 11.2645 31.0146 10.9796 31.0146C10.6948 31.0146 10.4271 30.9037 10.2257 30.7023L1.29774 21.7744C0.881994 21.3586 0.881994 20.6822 1.29774 20.2665L3.54344 18.0208C3.73587 17.8283 3.73587 17.5163 3.54344 17.324C3.35094 17.1316 3.039 17.1316 2.84662 17.324L0.600931 19.5697C-0.199008 20.3696 -0.199008 21.6712 0.600931 22.4711L9.52895 31.3991C9.91645 31.7866 10.4317 32 10.9796 32C11.5277 32 12.043 31.7866 12.4304 31.3991L27.488 16.3413C28.5161 15.3132 29.0824 13.9462 29.0824 12.4922C29.0824 11.3509 28.732 10.264 28.0847 9.35158L31.5299 5.90632C32.1557 5.28082 32.1557 4.26276 31.5301 3.63707ZM30.8332 5.2097L27.444 8.59902L23.4011 4.55613L26.7904 1.16681C26.9074 1.04981 27.0629 0.98544 27.2284 0.98544C27.3938 0.98544 27.5493 1.04988 27.6662 1.16681L27.893 1.39357L27.0489 2.23763C26.8565 2.43007 26.8565 2.74207 27.0489 2.93438C27.1452 3.03057 27.2713 3.07869 27.3974 3.07869C27.5234 3.07869 27.6495 3.03063 27.7458 2.93438L28.5897 2.09044L30.8331 4.33388C31.0747 4.57538 31.0747 4.9682 30.8332 5.2097Z" fill="#091C26"/>
</g>
<defs>
<clipPath id="clip0_72_48">
<rect width="32" height="32" fill="white"/>
</clipPath>
</defs>
</svg>
