<svg width="33" height="32" viewBox="0 0 33 32" fill="none" xmlns="http://www.w3.org/2000/svg">
<path d="M16.5692 0C7.51229 0 0.141581 7.09926 0.138387 15.824C0.136258 18.6141 0.894194 21.3372 2.33129 23.7355L0 31.9355L8.71093 29.7351C11.134 31.0026 13.8282 31.6638 16.5628 31.6619H16.5692C25.6261 31.6619 32.9968 24.5616 33 15.8368C33.0021 11.6107 31.2946 7.63258 28.1916 4.64235C25.0896 1.65106 20.9646 0.00106452 16.5692 0ZM16.5692 28.9889H16.5639C14.1134 28.9889 11.7097 28.3545 9.61258 27.1558L9.11226 26.8705L3.9451 28.1756L5.32471 23.3214L5.00003 22.8243C3.63628 20.7444 2.91032 18.3112 2.91145 15.824C2.91464 8.57148 9.042 2.673 16.5745 2.673C20.2215 2.67406 23.6504 4.0441 26.2297 6.52974C28.809 9.01539 30.228 12.3207 30.2259 15.8357C30.2227 23.0883 24.0964 28.9889 16.5681 28.9889H16.5692ZM24.0602 19.1368C23.6493 18.9399 21.631 17.9829 21.2541 17.8498C20.8784 17.7189 20.6048 17.6507 20.3312 18.0467C20.0587 18.4427 19.2709 19.3337 19.0325 19.5967C18.7919 19.8607 18.5524 19.8926 18.1415 19.6957C17.7306 19.4977 16.4074 19.0804 14.8404 17.7327C13.6194 16.6852 12.7955 15.3908 12.556 14.9937C12.3165 14.5988 12.5304 14.3848 12.7359 14.1879C12.92 14.0122 13.1468 13.7269 13.3512 13.4959C13.5555 13.2649 13.6237 13.0999 13.7621 12.8359C13.8983 12.573 13.8302 12.3409 13.7269 12.144C13.6237 11.9449 12.804 9.999 12.4602 9.20806C12.128 8.43735 11.7895 8.54061 11.5372 8.52784C11.2977 8.51719 11.0252 8.514 10.7495 8.514C10.478 8.514 10.032 8.613 9.65516 9.009C9.27939 9.405 8.21806 10.3609 8.21806 12.3069C8.21806 14.2539 9.68923 16.1338 9.89468 16.3978C10.1001 16.6607 12.7902 20.6559 16.9088 22.3697C17.8881 22.7753 18.6525 23.0191 19.2496 23.2022C20.2333 23.5035 21.1285 23.4598 21.8354 23.3587C22.6231 23.2448 24.2646 22.4027 24.6052 21.4798C24.948 20.5569 24.948 19.7649 24.8458 19.5999C24.7457 19.4349 24.4711 19.3359 24.0602 19.1368Z" fill="white"/>
</svg>
